<svg width="168" height="80" viewBox="0 0 168 80" fill="none" xmlns="http://www.w3.org/2000/svg">
<rect width="80" height="80" rx="16" fill="#1E2235"/>
<path d="M32.8922 62.5872C30.6334 60.5224 29.974 56.1839 30.915 53.0408C32.5468 55.0225 34.8078 55.6502 37.1497 56.0046C40.7651 56.5514 44.3158 56.3468 47.6743 54.6944C48.0585 54.5052 48.4136 54.2536 48.8334 53.9988C49.1485 54.9131 49.2306 55.8361 49.1205 56.7755C48.8528 59.0634 47.7142 60.8308 45.9033 62.1705C45.1792 62.7064 44.4129 63.1854 43.665 63.6906C41.3673 65.2436 40.7457 67.0645 41.6091 69.7131C41.6296 69.7781 41.6479 69.8425 41.6943 70C40.5212 69.4748 39.6643 68.7103 39.0114 67.7052C38.3218 66.6446 37.9937 65.4711 37.9764 64.2014C37.9678 63.5835 37.9678 62.9601 37.8847 62.3509C37.6818 60.8658 36.9846 60.2008 35.6712 60.1625C34.3232 60.1232 33.257 60.9565 32.9742 62.2689C32.9526 62.3695 32.9213 62.469 32.89 62.5861L32.8922 62.5872Z" fill="white"/>
<path d="M32.8922 62.5872C30.6334 60.5224 29.974 56.1839 30.915 53.0408C32.5468 55.0225 34.8078 55.6502 37.1497 56.0046C40.7651 56.5514 44.3158 56.3468 47.6743 54.6944C48.0585 54.5052 48.4136 54.2536 48.8334 53.9988C49.1485 54.9131 49.2306 55.8361 49.1205 56.7755C48.8528 59.0634 47.7142 60.8308 45.9033 62.1705C45.1792 62.7064 44.4129 63.1854 43.665 63.6906C41.3673 65.2436 40.7457 67.0645 41.6091 69.7131C41.6296 69.7781 41.6479 69.8425 41.6943 70C40.5212 69.4748 39.6643 68.7103 39.0114 67.7052C38.3218 66.6446 37.9937 65.4711 37.9764 64.2014C37.9678 63.5835 37.9678 62.9601 37.8847 62.3509C37.6818 60.8658 36.9846 60.2008 35.6712 60.1625C34.3232 60.1232 33.257 60.9565 32.9742 62.2689C32.9526 62.3695 32.9213 62.469 32.89 62.5861L32.8922 62.5872Z" fill="url(#paint0_linear_380_2249)"/>
<path d="M20 52.5171C20 52.5171 26.6887 49.2587 33.3962 49.2587L38.4533 33.6077C38.6427 32.8508 39.1955 32.3364 39.8196 32.3364C40.4437 32.3364 40.9965 32.8508 41.1858 33.6077L46.243 49.2587C54.187 49.2587 59.6392 52.5171 59.6392 52.5171C59.6392 52.5171 48.2778 21.5665 48.2556 21.5044C47.9295 20.5893 47.379 20 46.6369 20H33.0035C32.2613 20 31.733 20.5893 31.3848 21.5044C31.3602 21.5653 20 52.5171 20 52.5171Z" fill="white"/>
<path d="M90.358 47H88.5114L93.8523 32.4545H95.6705L101.011 47H99.1648L94.8182 34.7557H94.7045L90.358 47ZM91.0398 41.3182H98.483V42.8807H91.0398V41.3182ZM110.777 38.5341L109.271 38.9602C109.177 38.7093 109.037 38.4654 108.852 38.2287C108.672 37.9872 108.426 37.7884 108.114 37.6321C107.801 37.4759 107.401 37.3977 106.913 37.3977C106.246 37.3977 105.689 37.5516 105.244 37.8594C104.804 38.1624 104.584 38.5483 104.584 39.017C104.584 39.4337 104.735 39.7628 105.038 40.0043C105.341 40.2457 105.815 40.447 106.459 40.608L108.078 41.0057C109.054 41.2424 109.78 41.6046 110.259 42.0923C110.737 42.5753 110.976 43.1979 110.976 43.9602C110.976 44.5852 110.796 45.1439 110.436 45.6364C110.081 46.1288 109.584 46.517 108.945 46.8011C108.305 47.0852 107.562 47.2273 106.714 47.2273C105.602 47.2273 104.681 46.9858 103.952 46.5028C103.223 46.0199 102.761 45.3144 102.567 44.3864L104.158 43.9886C104.309 44.5758 104.596 45.0161 105.017 45.3097C105.443 45.6032 106 45.75 106.686 45.75C107.467 45.75 108.088 45.5843 108.547 45.2528C109.011 44.9167 109.243 44.5142 109.243 44.0455C109.243 43.6667 109.11 43.3494 108.845 43.0938C108.58 42.8333 108.173 42.6392 107.624 42.5114L105.805 42.0852C104.806 41.8485 104.072 41.4815 103.604 40.9844C103.14 40.4825 102.908 39.8551 102.908 39.1023C102.908 38.4867 103.08 37.9422 103.426 37.4688C103.777 36.9953 104.252 36.6236 104.854 36.3537C105.46 36.0838 106.146 35.9489 106.913 35.9489C107.993 35.9489 108.84 36.1856 109.456 36.6591C110.076 37.1326 110.517 37.7576 110.777 38.5341ZM118.243 36.0909V37.5114H112.59V36.0909H118.243ZM114.238 33.4773H115.914V43.875C115.914 44.3485 115.982 44.7036 116.12 44.9403C116.262 45.1723 116.442 45.3286 116.659 45.4091C116.882 45.4848 117.116 45.5227 117.363 45.5227C117.547 45.5227 117.699 45.5133 117.817 45.4943C117.935 45.4706 118.03 45.4517 118.101 45.4375L118.442 46.9432C118.328 46.9858 118.17 47.0284 117.966 47.071C117.763 47.1184 117.505 47.142 117.192 47.142C116.719 47.142 116.255 47.0402 115.8 46.8366C115.35 46.633 114.976 46.3229 114.678 45.9062C114.384 45.4896 114.238 44.964 114.238 44.3295V33.4773ZM120.765 47V36.0909H122.384V37.7386H122.498C122.696 37.1989 123.056 36.7609 123.577 36.4247C124.098 36.0885 124.685 35.9205 125.338 35.9205C125.462 35.9205 125.615 35.9228 125.8 35.9276C125.985 35.9323 126.124 35.9394 126.219 35.9489V37.6534C126.162 37.6392 126.032 37.6179 125.828 37.5895C125.63 37.5563 125.419 37.5398 125.196 37.5398C124.666 37.5398 124.193 37.651 123.776 37.8736C123.364 38.0914 123.037 38.3944 122.796 38.7827C122.559 39.1662 122.441 39.6042 122.441 40.0966V47H120.765ZM132.306 47.2273C131.321 47.2273 130.457 46.9929 129.713 46.5241C128.975 46.0554 128.397 45.3996 127.98 44.5568C127.569 43.714 127.363 42.7292 127.363 41.6023C127.363 40.4659 127.569 39.474 127.98 38.6264C128.397 37.7789 128.975 37.1207 129.713 36.652C130.457 36.1832 131.321 35.9489 132.306 35.9489C133.291 35.9489 134.152 36.1832 134.891 36.652C135.634 37.1207 136.212 37.7789 136.624 38.6264C137.041 39.474 137.249 40.4659 137.249 41.6023C137.249 42.7292 137.041 43.714 136.624 44.5568C136.212 45.3996 135.634 46.0554 134.891 46.5241C134.152 46.9929 133.291 47.2273 132.306 47.2273ZM132.306 45.7216C133.054 45.7216 133.669 45.5298 134.152 45.1463C134.635 44.7628 134.993 44.2585 135.225 43.6335C135.457 43.0085 135.573 42.3314 135.573 41.6023C135.573 40.8731 135.457 40.1937 135.225 39.5639C134.993 38.9342 134.635 38.4252 134.152 38.0369C133.669 37.6487 133.054 37.4545 132.306 37.4545C131.558 37.4545 130.942 37.6487 130.459 38.0369C129.976 38.4252 129.619 38.9342 129.387 39.5639C129.155 40.1937 129.039 40.8731 129.039 41.6023C129.039 42.3314 129.155 43.0085 129.387 43.6335C129.619 44.2585 129.976 44.7628 130.459 45.1463C130.942 45.5298 131.558 45.7216 132.306 45.7216ZM151.228 32.4545H152.989V42.8523C152.989 43.7803 152.819 44.5687 152.478 45.2173C152.137 45.866 151.656 46.3584 151.036 46.6946C150.416 47.0308 149.684 47.1989 148.842 47.1989C148.046 47.1989 147.338 47.0545 146.718 46.7656C146.098 46.4721 145.61 46.0554 145.255 45.5156C144.9 44.9759 144.722 44.3343 144.722 43.5909H146.455C146.455 44.0028 146.557 44.3627 146.761 44.6705C146.969 44.9735 147.253 45.2102 147.613 45.3807C147.973 45.5511 148.382 45.6364 148.842 45.6364C149.348 45.6364 149.779 45.5298 150.134 45.3168C150.489 45.1037 150.759 44.7912 150.944 44.3793C151.133 43.9626 151.228 43.4536 151.228 42.8523V32.4545ZM164.474 36.0909C164.388 35.3712 164.043 34.8125 163.437 34.4148C162.831 34.017 162.087 33.8182 161.207 33.8182C160.563 33.8182 159.999 33.9223 159.516 34.1307C159.038 34.339 158.664 34.6255 158.394 34.9901C158.129 35.3546 157.996 35.7689 157.996 36.233C157.996 36.6212 158.089 36.955 158.273 37.2344C158.463 37.509 158.704 37.7386 158.998 37.9233C159.291 38.1032 159.599 38.2524 159.921 38.3707C160.243 38.4844 160.539 38.5767 160.809 38.6477L162.286 39.0455C162.665 39.1449 163.086 39.2822 163.55 39.4574C164.019 39.6326 164.467 39.8717 164.893 40.1747C165.324 40.473 165.679 40.8565 165.958 41.3253C166.237 41.794 166.377 42.3693 166.377 43.0511C166.377 43.8371 166.171 44.5473 165.759 45.1818C165.352 45.8163 164.755 46.3205 163.969 46.6946C163.188 47.0687 162.239 47.2557 161.121 47.2557C160.08 47.2557 159.178 47.0876 158.415 46.7514C157.658 46.4152 157.061 45.9465 156.626 45.3452C156.195 44.7438 155.951 44.0455 155.894 43.25H157.712C157.76 43.7992 157.944 44.2538 158.266 44.6136C158.593 44.9687 159.005 45.2339 159.502 45.4091C160.004 45.5795 160.544 45.6648 161.121 45.6648C161.794 45.6648 162.397 45.5559 162.933 45.3381C163.468 45.1155 163.891 44.8078 164.204 44.4148C164.516 44.017 164.673 43.553 164.673 43.0227C164.673 42.5398 164.538 42.1468 164.268 41.8438C163.998 41.5407 163.643 41.2945 163.202 41.1051C162.762 40.9157 162.286 40.75 161.775 40.608L159.985 40.0966C158.849 39.7699 157.949 39.3035 157.286 38.6974C156.623 38.0914 156.292 37.2983 156.292 36.3182C156.292 35.5038 156.512 34.7936 156.952 34.1875C157.397 33.5767 157.994 33.1032 158.742 32.767C159.495 32.4261 160.335 32.2557 161.263 32.2557C162.201 32.2557 163.034 32.4238 163.763 32.7599C164.493 33.0914 165.07 33.5459 165.496 34.1236C165.927 34.7012 166.155 35.357 166.178 36.0909H164.474Z" fill="#DCDCDC"/>
<defs>
<linearGradient id="paint0_linear_380_2249" x1="30.5" y1="70" x2="52.3107" y2="59.6948" gradientUnits="userSpaceOnUse">
<stop stop-color="#D83333"/>
<stop offset="1" stop-color="#F041FF"/>
</linearGradient>
</defs>
</svg>
