<svg width="155" height="80" viewBox="0 0 155 80" fill="none" xmlns="http://www.w3.org/2000/svg">
<rect width="80" height="80" rx="16" fill="#1E2235"/>
<path d="M61.784 36.0931C61.6634 35.9974 60.5381 35.1477 58.1651 35.1477C57.5385 35.1505 56.9132 35.2042 56.2953 35.3085C55.836 32.1604 53.2333 30.6255 53.1166 30.5567L52.4794 30.1892L52.0603 30.794C51.5354 31.6064 51.1523 32.5019 50.9274 33.4426C50.5025 35.2396 50.7609 36.9275 51.6737 38.3704C50.5714 38.9847 48.8031 39.1359 48.4453 39.1493H19.1691C18.4044 39.1504 17.7839 39.7683 17.7797 40.5329C17.7456 43.0977 18.1801 45.6471 19.0619 48.0558C20.0704 50.7006 21.5708 52.6488 23.5228 53.841C25.7102 55.1806 29.264 55.9461 33.2924 55.9461C35.1122 55.9518 36.9287 55.7871 38.7178 55.4543C41.205 54.9976 43.5982 54.1283 45.7986 52.8822C47.6117 51.8323 49.2434 50.4966 50.6308 48.9265C52.9502 46.3009 54.332 43.3767 55.3596 40.7779H55.7692C58.3087 40.7779 59.8703 39.7617 60.7315 38.9101C61.3038 38.367 61.7505 37.7053 62.0405 36.9715L62.2223 36.4395L61.784 36.0931Z" fill="#2496ED"/>
<path d="M21.8826 38.2919H25.8057C25.9949 38.2919 26.1482 38.1385 26.1482 37.9493V34.4548C26.1493 34.2656 25.9968 34.1114 25.8076 34.1104C25.807 34.1104 25.8063 34.1104 25.8057 34.1104H21.8826C21.6934 34.1104 21.54 34.2637 21.54 34.4529V34.4548V37.9493C21.54 38.1385 21.6934 38.2919 21.8826 38.2919V38.2919Z" fill="#2496ED"/>
<path d="M27.2889 38.2919H31.212C31.4012 38.2919 31.5545 38.1385 31.5545 37.9493V34.4548C31.5556 34.2656 31.4031 34.1114 31.2139 34.1104C31.2132 34.1104 31.2126 34.1104 31.2119 34.1104H27.2888C27.0985 34.1104 26.9443 34.2645 26.9443 34.4548V37.9493C26.9455 38.1388 27.0993 38.2919 27.2889 38.2919" fill="#2496ED"/>
<path d="M32.7777 38.2919H36.7008C36.89 38.2919 37.0433 38.1385 37.0433 37.9493V34.4548C37.0444 34.2656 36.8919 34.1114 36.7027 34.1104C36.702 34.1104 36.7014 34.1104 36.7007 34.1104H32.7776C32.5884 34.1104 32.4351 34.2637 32.4351 34.4529V34.4548V37.9493C32.4351 38.1385 32.5885 38.2919 32.7777 38.2919V38.2919Z" fill="#2496ED"/>
<path d="M38.2009 38.2919H42.1241C42.3136 38.2919 42.4675 38.1389 42.4685 37.9493V34.4548C42.4685 34.2645 42.3143 34.1104 42.1241 34.1104H38.2009C38.0117 34.1104 37.8584 34.2637 37.8584 34.4529V34.4548V37.9493C37.8584 38.1385 38.0118 38.2919 38.2009 38.2919V38.2919Z" fill="#2496ED"/>
<path d="M27.2893 33.2645H31.2124C31.4019 33.2634 31.555 33.1095 31.555 32.92V29.4255C31.555 29.2363 31.4016 29.083 31.2124 29.083H27.2893C27.0998 29.083 26.9459 29.236 26.9448 29.4255V32.92C26.9459 33.1098 27.0995 33.2634 27.2893 33.2645Z" fill="#2496ED"/>
<path d="M32.7776 33.2645H36.7007C36.8902 33.2634 37.0433 33.1095 37.0433 32.92V29.4255C37.0433 29.2363 36.8899 29.083 36.7007 29.083H32.7776C32.5884 29.083 32.4351 29.2364 32.4351 29.4255V32.92C32.4351 33.1095 32.5881 33.2634 32.7776 33.2645Z" fill="#2496ED"/>
<path d="M38.2009 33.2645H42.1241C42.3139 33.2634 42.4675 33.1098 42.4685 32.92V29.4255C42.4675 29.236 42.3136 29.083 42.1241 29.083H38.2009C38.0117 29.083 37.8584 29.2364 37.8584 29.4255V32.92C37.8584 33.1095 38.0115 33.2634 38.2009 33.2645Z" fill="#2496ED"/>
<path d="M38.2009 28.2352H42.1241C42.3136 28.2352 42.4675 28.0822 42.4685 27.8927V24.3962C42.4675 24.2067 42.3136 24.0537 42.1241 24.0537H38.2009C38.0117 24.0537 37.8584 24.207 37.8584 24.3962V27.8926C37.8584 28.0818 38.0118 28.2352 38.2009 28.2352Z" fill="#2496ED"/>
<path d="M43.6726 38.2919H47.5958C47.7853 38.2919 47.9392 38.1389 47.9402 37.9493V34.4548C47.9402 34.2645 47.786 34.1104 47.5958 34.1104H43.6726C43.4835 34.1104 43.3301 34.2637 43.3301 34.4529V34.4548V37.9493C43.3301 38.1385 43.4835 38.2919 43.6726 38.2919" fill="#2496ED"/>
<path d="M94.25 47H89.7614V32.4545H94.4489C95.8598 32.4545 97.0672 32.7457 98.071 33.3281C99.0748 33.9058 99.8442 34.7367 100.379 35.821C100.914 36.9006 101.182 38.1932 101.182 39.6989C101.182 41.214 100.912 42.5185 100.372 43.6122C99.8324 44.7012 99.0464 45.5393 98.0142 46.1264C96.982 46.7088 95.7273 47 94.25 47ZM91.5227 45.4375H94.1364C95.339 45.4375 96.3357 45.2055 97.1264 44.7415C97.9171 44.2775 98.5066 43.617 98.8949 42.7599C99.2831 41.9029 99.4773 40.8826 99.4773 39.6989C99.4773 38.5246 99.2855 37.5137 98.902 36.6662C98.5185 35.8139 97.9455 35.1605 97.1832 34.706C96.4209 34.2467 95.4716 34.017 94.3352 34.017H91.5227V45.4375ZM108.341 47.2273C107.356 47.2273 106.492 46.9929 105.749 46.5241C105.01 46.0554 104.432 45.3996 104.016 44.5568C103.604 43.714 103.398 42.7292 103.398 41.6023C103.398 40.4659 103.604 39.474 104.016 38.6264C104.432 37.7789 105.01 37.1207 105.749 36.652C106.492 36.1832 107.356 35.9489 108.341 35.9489C109.326 35.9489 110.188 36.1832 110.926 36.652C111.67 37.1207 112.247 37.7789 112.659 38.6264C113.076 39.474 113.284 40.4659 113.284 41.6023C113.284 42.7292 113.076 43.714 112.659 44.5568C112.247 45.3996 111.67 46.0554 110.926 46.5241C110.188 46.9929 109.326 47.2273 108.341 47.2273ZM108.341 45.7216C109.089 45.7216 109.705 45.5298 110.188 45.1463C110.67 44.7628 111.028 44.2585 111.26 43.6335C111.492 43.0085 111.608 42.3314 111.608 41.6023C111.608 40.8731 111.492 40.1937 111.26 39.5639C111.028 38.9342 110.67 38.4252 110.188 38.0369C109.705 37.6487 109.089 37.4545 108.341 37.4545C107.593 37.4545 106.977 37.6487 106.494 38.0369C106.011 38.4252 105.654 38.9342 105.422 39.5639C105.19 40.1937 105.074 40.8731 105.074 41.6023C105.074 42.3314 105.19 43.0085 105.422 43.6335C105.654 44.2585 106.011 44.7628 106.494 45.1463C106.977 45.5298 107.593 45.7216 108.341 45.7216ZM120.275 47.2273C119.252 47.2273 118.371 46.9858 117.632 46.5028C116.894 46.0199 116.326 45.3546 115.928 44.5071C115.53 43.6596 115.331 42.6913 115.331 41.6023C115.331 40.4943 115.535 39.5166 115.942 38.669C116.354 37.8168 116.927 37.1515 117.661 36.6733C118.4 36.1903 119.261 35.9489 120.246 35.9489C121.013 35.9489 121.704 36.0909 122.32 36.375C122.935 36.6591 123.44 37.0568 123.833 37.5682C124.226 38.0795 124.47 38.6761 124.564 39.358H122.888C122.76 38.8608 122.476 38.4205 122.036 38.0369C121.6 37.6487 121.013 37.4545 120.275 37.4545C119.621 37.4545 119.048 37.625 118.556 37.9659C118.068 38.3021 117.687 38.7779 117.412 39.3935C117.142 40.0043 117.007 40.7216 117.007 41.5455C117.007 42.3883 117.14 43.1222 117.405 43.7472C117.675 44.3722 118.054 44.8575 118.542 45.2031C119.034 45.5488 119.612 45.7216 120.275 45.7216C120.71 45.7216 121.105 45.6458 121.461 45.4943C121.816 45.3428 122.116 45.125 122.363 44.8409C122.609 44.5568 122.784 44.2159 122.888 43.8182H124.564C124.47 44.4621 124.235 45.0421 123.861 45.5582C123.492 46.0696 123.002 46.4768 122.391 46.7798C121.785 47.0781 121.079 47.2273 120.275 47.2273ZM128.577 43.0227L128.549 40.9489H128.89L133.662 36.0909H135.736L130.651 41.233H130.509L128.577 43.0227ZM127.015 47V32.4545H128.691V47H127.015ZM133.946 47L129.685 41.6023L130.878 40.4375L136.077 47H133.946ZM142.018 47.2273C140.967 47.2273 140.06 46.9953 139.298 46.5312C138.54 46.0625 137.956 45.4091 137.544 44.571C137.136 43.7282 136.933 42.7481 136.933 41.6307C136.933 40.5133 137.136 39.5284 137.544 38.6761C137.956 37.8191 138.529 37.1515 139.262 36.6733C140.001 36.1903 140.863 35.9489 141.848 35.9489C142.416 35.9489 142.977 36.0436 143.531 36.233C144.085 36.4223 144.589 36.7301 145.044 37.1562C145.498 37.5777 145.86 38.1364 146.13 38.8324C146.4 39.5284 146.535 40.3854 146.535 41.4034V42.1136H138.126V40.6648H144.831C144.831 40.0492 144.708 39.5 144.461 39.017C144.22 38.5341 143.874 38.1529 143.424 37.8736C142.979 37.5942 142.454 37.4545 141.848 37.4545C141.18 37.4545 140.602 37.6203 140.115 37.9517C139.632 38.2784 139.26 38.7045 139 39.2301C138.739 39.7557 138.609 40.3191 138.609 40.9205V41.8864C138.609 42.7102 138.751 43.4086 139.035 43.9815C139.324 44.5497 139.724 44.983 140.235 45.2812C140.747 45.5748 141.341 45.7216 142.018 45.7216C142.458 45.7216 142.856 45.66 143.211 45.5369C143.571 45.4091 143.881 45.2197 144.142 44.9688C144.402 44.7131 144.603 44.3958 144.745 44.017L146.365 44.4716C146.194 45.0208 145.908 45.5038 145.505 45.9205C145.103 46.3324 144.606 46.6544 144.014 46.8864C143.422 47.1136 142.757 47.2273 142.018 47.2273ZM153.829 36.0909V37.5114H148.176V36.0909H153.829ZM149.824 33.4773H151.5V43.875C151.5 44.3485 151.568 44.7036 151.706 44.9403C151.848 45.1723 152.028 45.3286 152.245 45.4091C152.468 45.4848 152.702 45.5227 152.949 45.5227C153.133 45.5227 153.285 45.5133 153.403 45.4943C153.521 45.4706 153.616 45.4517 153.687 45.4375L154.028 46.9432C153.914 46.9858 153.756 47.0284 153.552 47.071C153.349 47.1184 153.091 47.142 152.778 47.142C152.305 47.142 151.841 47.0402 151.386 46.8366C150.936 46.633 150.562 46.3229 150.264 45.9062C149.97 45.4896 149.824 44.964 149.824 44.3295V33.4773Z" fill="#DCDCDC"/>
</svg>
