<svg width="148" height="80" viewBox="0 0 148 80" fill="none" xmlns="http://www.w3.org/2000/svg">
<rect width="80" height="80" rx="16" fill="#1E2235"/>
<path d="M31.3133 34.4667L39.7456 29.5983C39.8493 29.5384 39.967 29.5068 40.0868 29.5068C40.2065 29.5068 40.3242 29.5384 40.4279 29.5983L48.8602 34.4667C48.9639 34.5266 49.05 34.6127 49.1099 34.7164C49.1698 34.8201 49.2013 34.9377 49.2014 35.0575V44.7943C49.2014 45.0379 49.0712 45.263 48.8602 45.3851L40.4279 50.2535C40.3242 50.3134 40.2065 50.3449 40.0868 50.3449C39.967 50.3449 39.8493 50.3134 39.7456 50.2535L31.3133 45.3851C31.2096 45.3252 31.1235 45.2391 31.0636 45.1354C31.0037 45.0317 30.9722 44.914 30.9722 44.7943V35.0573C30.9723 34.8136 31.1024 34.5886 31.3133 34.4665" fill="#8080F2"/>
<path d="M61.9474 39.1281L51.8617 21.5817C51.4953 20.9473 50.8186 20.4792 50.086 20.4792H29.9142C29.1816 20.4792 28.5045 20.9473 28.1382 21.5817L18.0526 39.0894C17.6863 39.7239 17.6863 40.5248 18.0526 41.1593L28.1382 58.562C28.5045 59.1963 29.1816 59.5206 29.9142 59.5206H50.0858C50.8184 59.5206 51.4953 59.2061 51.8615 58.5715L61.9473 41.1406C62.3139 40.5064 62.3139 39.7624 61.9473 39.1281H61.9474ZM53.5959 47.5656C53.5959 47.8234 53.4407 48.0621 53.2171 48.1913L40.37 55.6033C40.2594 55.6667 40.1341 55.7 40.0066 55.7C39.8791 55.7 39.7539 55.6667 39.6432 55.6033L26.7863 48.1913C26.5628 48.0621 26.4064 47.8236 26.4064 47.5654V32.7411C26.4064 32.4829 26.5606 32.2445 26.7842 32.1154L39.6306 24.7032C39.7411 24.6397 39.8664 24.6063 39.9938 24.6063C40.1213 24.6063 40.2466 24.6397 40.3571 24.7032L53.2148 32.1154C53.4386 32.2445 53.5959 32.4829 53.5959 32.7411V47.5654V47.5656Z" fill="#4B32C3"/>
<path d="M89.7614 47V32.4545H98.5398V34.017H91.5227V38.9318H98.0852V40.4943H91.5227V45.4375H98.6534V47H89.7614ZM109.669 36.0909C109.584 35.3712 109.238 34.8125 108.632 34.4148C108.026 34.017 107.283 33.8182 106.402 33.8182C105.758 33.8182 105.195 33.9223 104.712 34.1307C104.233 34.339 103.859 34.6255 103.589 34.9901C103.324 35.3546 103.192 35.7689 103.192 36.233C103.192 36.6212 103.284 36.955 103.469 37.2344C103.658 37.509 103.9 37.7386 104.193 37.9233C104.487 38.1032 104.795 38.2524 105.116 38.3707C105.438 38.4844 105.734 38.5767 106.004 38.6477L107.482 39.0455C107.86 39.1449 108.282 39.2822 108.746 39.4574C109.214 39.6326 109.662 39.8717 110.088 40.1747C110.519 40.473 110.874 40.8565 111.153 41.3253C111.433 41.794 111.572 42.3693 111.572 43.0511C111.572 43.8371 111.366 44.5473 110.955 45.1818C110.547 45.8163 109.951 46.3205 109.165 46.6946C108.384 47.0687 107.434 47.2557 106.317 47.2557C105.275 47.2557 104.373 47.0876 103.611 46.7514C102.853 46.4152 102.257 45.9465 101.821 45.3452C101.39 44.7438 101.146 44.0455 101.089 43.25H102.908C102.955 43.7992 103.14 44.2538 103.462 44.6136C103.788 44.9687 104.2 45.2339 104.697 45.4091C105.199 45.5795 105.739 45.6648 106.317 45.6648C106.989 45.6648 107.593 45.5559 108.128 45.3381C108.663 45.1155 109.087 44.8078 109.399 44.4148C109.712 44.017 109.868 43.553 109.868 43.0227C109.868 42.5398 109.733 42.1468 109.463 41.8438C109.193 41.5407 108.838 41.2945 108.398 41.1051C107.957 40.9157 107.482 40.75 106.97 40.608L105.18 40.0966C104.044 39.7699 103.144 39.3035 102.482 38.6974C101.819 38.0914 101.487 37.2983 101.487 36.3182C101.487 35.5038 101.707 34.7936 102.148 34.1875C102.593 33.5767 103.189 33.1032 103.938 32.767C104.69 32.4261 105.531 32.2557 106.459 32.2557C107.396 32.2557 108.23 32.4238 108.959 32.7599C109.688 33.0914 110.266 33.5459 110.692 34.1236C111.123 34.7012 111.35 35.357 111.374 36.0909H109.669ZM114.468 47V32.4545H116.23V45.4375H122.991V47H114.468ZM125.491 47V36.0909H127.167V47H125.491ZM126.343 34.2727C126.017 34.2727 125.735 34.1615 125.498 33.9389C125.266 33.7164 125.15 33.4489 125.15 33.1364C125.15 32.8239 125.266 32.5563 125.498 32.3338C125.735 32.1113 126.017 32 126.343 32C126.67 32 126.949 32.1113 127.181 32.3338C127.418 32.5563 127.537 32.8239 127.537 33.1364C127.537 33.4489 127.418 33.7164 127.181 33.9389C126.949 34.1615 126.67 34.2727 126.343 34.2727ZM131.913 40.4375V47H130.237V36.0909H131.857V37.7955H131.999C132.254 37.2415 132.643 36.7964 133.163 36.4602C133.684 36.1193 134.357 35.9489 135.18 35.9489C135.919 35.9489 136.565 36.1004 137.119 36.4034C137.673 36.7017 138.104 37.1562 138.412 37.767C138.72 38.3731 138.874 39.1402 138.874 40.0682V47H137.197V40.1818C137.197 39.3248 136.975 38.6572 136.53 38.179C136.085 37.696 135.474 37.4545 134.697 37.4545C134.162 37.4545 133.684 37.5705 133.263 37.8026C132.846 38.0346 132.517 38.3731 132.276 38.8182C132.034 39.2633 131.913 39.803 131.913 40.4375ZM146.681 36.0909V37.5114H141.027V36.0909H146.681ZM142.675 33.4773H144.351V43.875C144.351 44.3485 144.42 44.7036 144.557 44.9403C144.699 45.1723 144.879 45.3286 145.097 45.4091C145.319 45.4848 145.554 45.5227 145.8 45.5227C145.985 45.5227 146.136 45.5133 146.255 45.4943C146.373 45.4706 146.468 45.4517 146.539 45.4375L146.88 46.9432C146.766 46.9858 146.607 47.0284 146.404 47.071C146.2 47.1184 145.942 47.142 145.63 47.142C145.156 47.142 144.692 47.0402 144.238 46.8366C143.788 46.633 143.414 46.3229 143.115 45.9062C142.822 45.4896 142.675 44.964 142.675 44.3295V33.4773Z" fill="#DCDCDC"/>
</svg>
