<svg width="146" height="80" viewBox="0 0 146 80" fill="none" xmlns="http://www.w3.org/2000/svg">
<rect width="80" height="80" rx="16" fill="#1E2235"/>
<path d="M32.5927 62.222C36.6816 62.222 40.0001 58.9035 40.0001 54.8146V47.4072H32.5927C28.5038 47.4072 25.1853 50.7257 25.1853 54.8146C25.1853 58.9035 28.5038 62.222 32.5927 62.222Z" fill="#0ACF83"/>
<path d="M25.1853 39.9999C25.1853 35.911 28.5038 32.5925 32.5927 32.5925H40.0001V47.4073H32.5927C28.5038 47.4073 25.1853 44.0888 25.1853 39.9999Z" fill="#A259FF"/>
<path d="M25.1853 25.185C25.1853 21.0961 28.5038 17.7776 32.5927 17.7776H40.0001V32.5924H32.5927C28.5038 32.5924 25.1853 29.2739 25.1853 25.185Z" fill="#F24E1E"/>
<path d="M40 17.7776H47.4074C51.4963 17.7776 54.8148 21.0961 54.8148 25.185C54.8148 29.2739 51.4963 32.5924 47.4074 32.5924H40V17.7776Z" fill="#FF7262"/>
<path d="M54.8148 39.9999C54.8148 44.0888 51.4963 47.4073 47.4074 47.4073C43.3185 47.4073 40 44.0888 40 39.9999C40 35.911 43.3185 32.5925 47.4074 32.5925C51.4963 32.5925 54.8148 35.911 54.8148 39.9999Z" fill="#1ABCFE"/>
<path d="M89.7614 47V32.4545H98.483V34.017H91.5227V38.9318H97.8295V40.4943H91.5227V47H89.7614ZM101.272 47V36.0909H102.949V47H101.272ZM102.125 34.2727C101.798 34.2727 101.516 34.1615 101.279 33.9389C101.047 33.7164 100.931 33.4489 100.931 33.1364C100.931 32.8239 101.047 32.5563 101.279 32.3338C101.516 32.1113 101.798 32 102.125 32C102.451 32 102.731 32.1113 102.963 32.3338C103.199 32.5563 103.318 32.8239 103.318 33.1364C103.318 33.4489 103.199 33.7164 102.963 33.9389C102.731 34.1615 102.451 34.2727 102.125 34.2727ZM110.422 51.3182C109.612 51.3182 108.916 51.214 108.334 51.0057C107.751 50.8021 107.266 50.5322 106.878 50.196C106.494 49.8646 106.189 49.5095 105.962 49.1307L107.297 48.1932C107.448 48.392 107.64 48.6193 107.872 48.875C108.104 49.1354 108.421 49.3603 108.824 49.5497C109.231 49.7438 109.764 49.8409 110.422 49.8409C111.303 49.8409 112.029 49.6278 112.602 49.2017C113.175 48.7756 113.462 48.108 113.462 47.1989V44.983H113.32C113.196 45.1818 113.021 45.428 112.794 45.7216C112.571 46.0104 112.25 46.2685 111.828 46.4957C111.411 46.7183 110.848 46.8295 110.138 46.8295C109.257 46.8295 108.466 46.6212 107.766 46.2045C107.07 45.7879 106.518 45.1818 106.111 44.3864C105.708 43.5909 105.507 42.625 105.507 41.4886C105.507 40.3712 105.704 39.3982 106.097 38.5696C106.49 37.7363 107.036 37.0923 107.737 36.6378C108.438 36.1785 109.248 35.9489 110.166 35.9489C110.876 35.9489 111.44 36.0672 111.857 36.304C112.278 36.536 112.6 36.8011 112.822 37.0994C113.05 37.393 113.225 37.6345 113.348 37.8239H113.518V36.0909H115.138V47.3125C115.138 48.25 114.925 49.0123 114.499 49.5994C114.077 50.1913 113.509 50.6245 112.794 50.8991C112.084 51.1785 111.293 51.3182 110.422 51.3182ZM110.365 45.3239C111.037 45.3239 111.606 45.17 112.07 44.8622C112.534 44.5545 112.886 44.1117 113.128 43.5341C113.369 42.9564 113.49 42.2652 113.49 41.4602C113.49 40.6742 113.372 39.9806 113.135 39.3793C112.898 38.7779 112.548 38.3068 112.084 37.9659C111.62 37.625 111.047 37.4545 110.365 37.4545C109.655 37.4545 109.063 37.6345 108.589 37.9943C108.121 38.3542 107.768 38.8371 107.531 39.4432C107.299 40.0492 107.183 40.7216 107.183 41.4602C107.183 42.2178 107.302 42.8878 107.538 43.4702C107.78 44.0478 108.135 44.5024 108.604 44.8338C109.077 45.1605 109.664 45.3239 110.365 45.3239ZM118.206 47V36.0909H119.825V37.7955H119.967C120.195 37.2131 120.562 36.7609 121.068 36.4389C121.575 36.1122 122.183 35.9489 122.893 35.9489C123.613 35.9489 124.212 36.1122 124.69 36.4389C125.173 36.7609 125.55 37.2131 125.82 37.7955H125.933C126.213 37.232 126.632 36.7846 127.19 36.4531C127.749 36.117 128.419 35.9489 129.2 35.9489C130.176 35.9489 130.973 36.2543 131.594 36.8651C132.214 37.4711 132.524 38.4157 132.524 39.6989V47H130.848V39.6989C130.848 38.8939 130.628 38.3187 130.188 37.973C129.747 37.6274 129.229 37.4545 128.632 37.4545C127.865 37.4545 127.271 37.6866 126.849 38.1506C126.428 38.6098 126.217 39.1922 126.217 39.8977V47H124.513V39.5284C124.513 38.9081 124.312 38.4086 123.909 38.0298C123.507 37.6463 122.988 37.4545 122.354 37.4545C121.918 37.4545 121.511 37.5705 121.132 37.8026C120.758 38.0346 120.455 38.3565 120.223 38.7685C119.996 39.1757 119.882 39.6468 119.882 40.1818V47H118.206ZM138.799 47.2557C138.108 47.2557 137.48 47.1255 136.917 46.8651C136.353 46.5999 135.906 46.2188 135.575 45.7216C135.243 45.2197 135.077 44.6136 135.077 43.9034C135.077 43.2784 135.201 42.7718 135.447 42.3835C135.693 41.9905 136.022 41.6828 136.434 41.4602C136.846 41.2377 137.3 41.072 137.798 40.9631C138.299 40.8494 138.804 40.7595 139.31 40.6932C139.973 40.608 140.511 40.544 140.923 40.5014C141.339 40.4541 141.642 40.3759 141.832 40.267C142.026 40.1581 142.123 39.9687 142.123 39.6989V39.642C142.123 38.9413 141.931 38.3968 141.548 38.0085C141.169 37.6203 140.594 37.4261 139.822 37.4261C139.022 37.4261 138.394 37.6013 137.94 37.9517C137.485 38.3021 137.165 38.6761 136.981 39.0739L135.39 38.5057C135.674 37.8428 136.053 37.3267 136.526 36.9574C137.004 36.5833 137.525 36.3229 138.089 36.1761C138.657 36.0246 139.216 35.9489 139.765 35.9489C140.115 35.9489 140.518 35.9915 140.972 36.0767C141.432 36.1572 141.874 36.3253 142.3 36.581C142.731 36.8366 143.089 37.2225 143.373 37.7386C143.657 38.2547 143.799 38.946 143.799 39.8125V47H142.123V45.5227H142.038C141.924 45.7595 141.735 46.0128 141.469 46.2827C141.204 46.5526 140.852 46.7822 140.411 46.9716C139.971 47.161 139.433 47.2557 138.799 47.2557ZM139.055 45.75C139.718 45.75 140.276 45.6198 140.731 45.3594C141.19 45.099 141.536 44.7628 141.768 44.3509C142.004 43.9389 142.123 43.5057 142.123 43.0511V41.517C142.052 41.6023 141.896 41.6804 141.654 41.7514C141.417 41.8177 141.143 41.8769 140.83 41.929C140.522 41.9763 140.222 42.0189 139.928 42.0568C139.639 42.09 139.405 42.1184 139.225 42.142C138.79 42.1989 138.382 42.2912 138.004 42.419C137.629 42.5421 137.326 42.7292 137.094 42.9801C136.867 43.2263 136.754 43.5625 136.754 43.9886C136.754 44.571 136.969 45.0114 137.4 45.3097C137.835 45.6032 138.387 45.75 139.055 45.75Z" fill="#DCDCDC"/>
</svg>
