<svg width="155" height="80" viewBox="0 0 155 80" fill="none" xmlns="http://www.w3.org/2000/svg">
<rect width="80" height="80" rx="16" fill="#1E2235"/>
<path d="M39.9999 18.3262C27.7284 18.3262 17.7776 28.2753 17.7776 40.5485C17.7776 50.367 24.1449 58.6969 32.9746 61.6353C34.0852 61.841 34.493 61.1532 34.493 60.5662C34.493 60.0364 34.4722 58.2857 34.4628 56.4289C28.2804 57.7731 26.9759 53.8069 26.9759 53.8069C25.965 51.2383 24.5085 50.5554 24.5085 50.5554C22.4924 49.1761 24.6605 49.2044 24.6605 49.2044C26.892 49.3612 28.0671 51.4945 28.0671 51.4945C30.049 54.8918 33.2657 53.9096 34.5338 53.3419C34.7332 51.9055 35.3092 50.9253 35.9446 50.3704C31.0088 49.8083 25.82 47.9028 25.82 39.3879C25.82 36.9619 26.6881 34.9794 28.1098 33.4232C27.879 32.8633 27.1184 30.6032 28.325 27.5422C28.325 27.5422 30.1911 26.945 34.4377 29.8201C36.2102 29.3276 38.1113 29.0808 39.9999 29.0725C41.8885 29.0808 43.791 29.3276 45.5669 29.8201C49.8085 26.945 51.672 27.5422 51.672 27.5422C52.8815 30.6032 52.1206 32.8633 51.8898 33.4232C53.3146 34.9794 54.1768 36.9617 54.1768 39.3879C54.1768 47.923 48.9782 49.8025 44.0299 50.3526C44.8269 51.0422 45.5371 52.3947 45.5371 54.4678C45.5371 57.4411 45.5113 59.8342 45.5113 60.5662C45.5113 61.1576 45.9113 61.8506 47.0379 61.6323C55.8627 58.6906 62.222 50.3637 62.222 40.5485C62.222 28.2753 52.2726 18.3262 39.9999 18.3262Z" fill="white"/>
<path d="M26.1006 49.9825C26.0518 50.0929 25.8778 50.126 25.7198 50.0503C25.5585 49.9778 25.4679 49.8273 25.5202 49.7164C25.5681 49.6028 25.7421 49.5711 25.9029 49.6474C26.0645 49.7197 26.1565 49.8717 26.1006 49.9825V49.9825ZM27.1937 50.9578C27.0877 51.0561 26.8805 51.0105 26.7398 50.8552C26.5945 50.7003 26.5673 50.4932 26.6748 50.3933C26.7841 50.2952 26.9851 50.341 27.1308 50.4962C27.2761 50.6528 27.3044 50.8587 27.1935 50.958L27.1937 50.9578ZM27.9436 52.2057C27.8074 52.3004 27.5846 52.2117 27.4471 52.014C27.311 51.8166 27.311 51.5795 27.4501 51.4845C27.5881 51.3896 27.8074 51.475 27.9468 51.671C28.0827 51.872 28.0827 52.109 27.9435 52.2059L27.9436 52.2057ZM29.2117 53.6511C29.0899 53.7853 28.8306 53.7494 28.6406 53.566C28.4465 53.3869 28.3923 53.1326 28.5144 52.9982C28.6377 52.8637 28.8986 52.9015 29.0899 53.0833C29.2829 53.2621 29.3418 53.5183 29.2119 53.6511H29.2117ZM30.8507 54.1391C30.7972 54.313 30.5473 54.3922 30.2956 54.3183C30.0443 54.2421 29.8798 54.0382 29.9305 53.8623C29.9828 53.6872 30.2338 53.6047 30.4873 53.6839C30.7383 53.7597 30.9032 53.962 30.8509 54.1391H30.8507ZM32.7163 54.346C32.7226 54.5293 32.5091 54.6813 32.2448 54.6846C31.9791 54.6904 31.7642 54.542 31.7614 54.3618C31.7614 54.1767 31.97 54.0261 32.2356 54.0218C32.4998 54.0166 32.7163 54.1638 32.7163 54.346V54.346ZM34.5487 54.2757C34.5805 54.4545 34.3968 54.6382 34.1345 54.687C33.8765 54.7341 33.6377 54.6238 33.6048 54.4465C33.5727 54.2632 33.7599 54.0797 34.0173 54.0321C34.2802 53.9864 34.5153 54.0939 34.5487 54.2757" fill="white"/>
<path d="M99.7045 37C99.5483 36.5218 99.3423 36.0933 99.0866 35.7145C98.8357 35.331 98.535 35.0043 98.1847 34.7344C97.839 34.4645 97.446 34.2585 97.0057 34.1165C96.5653 33.9744 96.0824 33.9034 95.5568 33.9034C94.6951 33.9034 93.9115 34.1259 93.206 34.571C92.5005 35.0161 91.9394 35.6719 91.5227 36.5384C91.1061 37.4048 90.8977 38.4678 90.8977 39.7273C90.8977 40.9867 91.1084 42.0497 91.5298 42.9162C91.9512 43.7827 92.5218 44.4384 93.2415 44.8835C93.9612 45.3286 94.7708 45.5511 95.6705 45.5511C96.5038 45.5511 97.2377 45.3736 97.8722 45.0185C98.5114 44.6586 99.0085 44.152 99.3636 43.4986C99.7235 42.8404 99.9034 42.0663 99.9034 41.1761L100.443 41.2898H96.0682V39.7273H101.608V41.2898C101.608 42.4877 101.352 43.5294 100.841 44.4148C100.334 45.3002 99.6335 45.9867 98.7386 46.4744C97.8485 46.9574 96.8258 47.1989 95.6705 47.1989C94.3826 47.1989 93.2509 46.8958 92.2756 46.2898C91.3049 45.6837 90.5473 44.822 90.0028 43.7045C89.4631 42.5871 89.1932 41.2614 89.1932 39.7273C89.1932 38.5767 89.3471 37.5421 89.6548 36.6236C89.9673 35.7003 90.4077 34.9143 90.9759 34.2656C91.544 33.617 92.2164 33.1198 92.9929 32.7741C93.7694 32.4285 94.6241 32.2557 95.5568 32.2557C96.3239 32.2557 97.0388 32.3717 97.7017 32.6037C98.3693 32.831 98.9635 33.1553 99.4844 33.5767C100.01 33.9934 100.448 34.4929 100.798 35.0753C101.149 35.6529 101.39 36.2945 101.523 37H99.7045ZM105.081 47V36.0909H106.757V47H105.081ZM105.933 34.2727C105.607 34.2727 105.325 34.1615 105.088 33.9389C104.856 33.7164 104.74 33.4489 104.74 33.1364C104.74 32.8239 104.856 32.5563 105.088 32.3338C105.325 32.1113 105.607 32 105.933 32C106.26 32 106.539 32.1113 106.771 32.3338C107.008 32.5563 107.126 32.8239 107.126 33.1364C107.126 33.4489 107.008 33.7164 106.771 33.9389C106.539 34.1615 106.26 34.2727 105.933 34.2727ZM114.571 36.0909V37.5114H108.918V36.0909H114.571ZM110.566 33.4773H112.242V43.875C112.242 44.3485 112.31 44.7036 112.448 44.9403C112.59 45.1723 112.77 45.3286 112.988 45.4091C113.21 45.4848 113.444 45.5227 113.691 45.5227C113.875 45.5227 114.027 45.5133 114.145 45.4943C114.264 45.4706 114.358 45.4517 114.429 45.4375L114.77 46.9432C114.657 46.9858 114.498 47.0284 114.294 47.071C114.091 47.1184 113.833 47.142 113.52 47.142C113.047 47.142 112.583 47.0402 112.128 46.8366C111.678 46.633 111.304 46.3229 111.006 45.9062C110.712 45.4896 110.566 44.964 110.566 44.3295V33.4773ZM117.554 47V32.4545H119.316V38.9318H127.071V32.4545H128.833V47H127.071V40.4943H119.316V47H117.554ZM139.007 42.5398V36.0909H140.683V47H139.007V45.1534H138.893C138.637 45.7074 138.24 46.1785 137.7 46.5668C137.16 46.9503 136.478 47.142 135.654 47.142C134.973 47.142 134.367 46.9929 133.836 46.6946C133.306 46.3916 132.889 45.937 132.586 45.331C132.283 44.7202 132.132 43.9508 132.132 43.0227V36.0909H133.808V42.9091C133.808 43.7045 134.03 44.339 134.475 44.8125C134.925 45.286 135.498 45.5227 136.194 45.5227C136.611 45.5227 137.035 45.4162 137.466 45.2031C137.901 44.9901 138.266 44.6634 138.559 44.223C138.858 43.7827 139.007 43.2216 139.007 42.5398ZM143.98 47V32.4545H145.656V37.8239H145.798C145.921 37.6345 146.092 37.393 146.31 37.0994C146.532 36.8011 146.849 36.536 147.261 36.304C147.678 36.0672 148.241 35.9489 148.952 35.9489C149.87 35.9489 150.68 36.1785 151.381 36.6378C152.081 37.0971 152.628 37.7481 153.021 38.5909C153.414 39.4337 153.611 40.428 153.611 41.5739C153.611 42.7292 153.414 43.7306 153.021 44.5781C152.628 45.4209 152.084 46.0743 151.388 46.5384C150.692 46.9976 149.889 47.2273 148.98 47.2273C148.279 47.2273 147.718 47.1113 147.297 46.8793C146.875 46.6425 146.551 46.375 146.324 46.0767C146.097 45.7737 145.921 45.5227 145.798 45.3239H145.599V47H143.98ZM145.628 41.5455C145.628 42.3693 145.749 43.0961 145.99 43.7259C146.232 44.3509 146.584 44.8409 147.048 45.196C147.512 45.5464 148.08 45.7216 148.753 45.7216C149.454 45.7216 150.038 45.5369 150.507 45.1676C150.981 44.7936 151.336 44.2917 151.572 43.6619C151.814 43.0275 151.935 42.322 151.935 41.5455C151.935 40.7784 151.816 40.0871 151.58 39.4716C151.348 38.8513 150.995 38.3613 150.521 38.0014C150.053 37.6368 149.463 37.4545 148.753 37.4545C148.071 37.4545 147.498 37.6274 147.034 37.973C146.57 38.3139 146.22 38.7921 145.983 39.4077C145.746 40.0185 145.628 40.7311 145.628 41.5455Z" fill="#DCDCDC"/>
</svg>
