<svg width="181" height="80" viewBox="0 0 181 80" fill="none" xmlns="http://www.w3.org/2000/svg">
<rect width="80" height="80" rx="16" fill="#1E2235"/>
<path d="M39.861 17.8992L41.047 20.1268C41.3137 20.5379 41.6025 20.9017 41.9428 21.2406C42.9403 22.2257 43.8702 23.2771 44.7259 24.3876C46.7355 27.0263 48.091 29.9566 49.059 33.1258C49.6395 35.0618 49.9547 37.0477 49.9783 39.0559C50.0756 45.0596 48.0174 50.2148 43.8677 54.4992C43.1927 55.1786 42.4635 55.8019 41.6873 56.363C41.2762 56.363 41.0817 56.0477 40.9123 55.7575C40.6038 55.2192 40.3984 54.6281 40.3068 54.0145C40.161 53.2882 40.0651 52.5619 40.1124 51.8119V51.4731C40.079 51.4008 39.7166 18.07 39.861 17.8992V17.8992Z" fill="#599636"/>
<path d="M39.861 17.8254C39.8124 17.7282 39.7638 17.8018 39.7152 17.849C39.7388 18.3351 39.5694 18.7684 39.3041 19.1822C39.0125 19.5933 38.6264 19.9085 38.2389 20.2474C36.0863 22.1112 34.392 24.3624 33.0351 26.8803C31.2297 30.2689 30.2992 33.9006 30.0353 37.7239C29.9145 39.103 30.4714 43.9693 30.9061 45.3733C32.0921 49.1008 34.2225 52.2242 36.982 54.9351C37.6598 55.5879 38.3847 56.1934 39.1347 56.7753C39.3527 56.7753 39.3763 56.5808 39.4263 56.4364C39.5219 56.1273 39.5948 55.8117 39.6444 55.492L40.1304 51.8617L39.861 17.8254Z" fill="#6CAC48"/>
<path d="M41.0471 57.8376C41.0957 57.2821 41.3624 56.8211 41.6526 56.3614C41.361 56.2406 41.1443 56.0003 40.9749 55.7323C40.8288 55.4785 40.7079 55.211 40.6138 54.9337C40.275 53.9171 40.2027 52.8505 40.1055 51.8117V51.1826C39.9847 51.2798 39.9597 52.102 39.9597 52.2242C39.889 53.3221 39.7433 54.414 39.5236 55.492C39.4514 55.9281 39.4028 56.3628 39.1348 56.7502C39.1348 56.7988 39.1348 56.8474 39.1584 56.9197C39.5945 58.2029 39.7139 59.5097 39.7875 60.8416V61.3277C39.7875 61.9082 39.7639 61.7859 40.2458 61.9804C40.4402 62.0526 40.6569 62.0776 40.8513 62.222C40.9971 62.222 41.0207 62.1012 41.0207 62.004L40.9485 61.2054V58.9778C40.9249 58.589 40.9971 58.2029 41.0457 57.839L41.0471 57.8376Z" fill="#C2BFBF"/>
<path d="M89.7614 32.4545H91.8636L96.8068 44.5284H96.9773L101.92 32.4545H104.023V47H102.375V35.9489H102.233L97.6875 47H96.0966L91.5511 35.9489H91.4091V47H89.7614V32.4545ZM111.759 47.2273C110.774 47.2273 109.91 46.9929 109.167 46.5241C108.428 46.0554 107.85 45.3996 107.434 44.5568C107.022 43.714 106.816 42.7292 106.816 41.6023C106.816 40.4659 107.022 39.474 107.434 38.6264C107.85 37.7789 108.428 37.1207 109.167 36.652C109.91 36.1832 110.774 35.9489 111.759 35.9489C112.744 35.9489 113.605 36.1832 114.344 36.652C115.087 37.1207 115.665 37.7789 116.077 38.6264C116.494 39.474 116.702 40.4659 116.702 41.6023C116.702 42.7292 116.494 43.714 116.077 44.5568C115.665 45.3996 115.087 46.0554 114.344 46.5241C113.605 46.9929 112.744 47.2273 111.759 47.2273ZM111.759 45.7216C112.507 45.7216 113.123 45.5298 113.605 45.1463C114.088 44.7628 114.446 44.2585 114.678 43.6335C114.91 43.0085 115.026 42.3314 115.026 41.6023C115.026 40.8731 114.91 40.1937 114.678 39.5639C114.446 38.9342 114.088 38.4252 113.605 38.0369C113.123 37.6487 112.507 37.4545 111.759 37.4545C111.011 37.4545 110.395 37.6487 109.912 38.0369C109.429 38.4252 109.072 38.9342 108.84 39.5639C108.608 40.1937 108.492 40.8731 108.492 41.6023C108.492 42.3314 108.608 43.0085 108.84 43.6335C109.072 44.2585 109.429 44.7628 109.912 45.1463C110.395 45.5298 111.011 45.7216 111.759 45.7216ZM120.937 40.4375V47H119.261V36.0909H120.88V37.7955H121.022C121.278 37.2415 121.666 36.7964 122.187 36.4602C122.708 36.1193 123.38 35.9489 124.204 35.9489C124.942 35.9489 125.589 36.1004 126.143 36.4034C126.697 36.7017 127.128 37.1562 127.435 37.767C127.743 38.3731 127.897 39.1402 127.897 40.0682V47H126.221V40.1818C126.221 39.3248 125.998 38.6572 125.553 38.179C125.108 37.696 124.497 37.4545 123.721 37.4545C123.186 37.4545 122.708 37.5705 122.286 37.8026C121.87 38.0346 121.54 38.3731 121.299 38.8182C121.058 39.2633 120.937 39.803 120.937 40.4375ZM135.363 51.3182C134.554 51.3182 133.858 51.214 133.275 51.0057C132.693 50.8021 132.208 50.5322 131.819 50.196C131.436 49.8646 131.13 49.5095 130.903 49.1307L132.238 48.1932C132.39 48.392 132.582 48.6193 132.814 48.875C133.046 49.1354 133.363 49.3603 133.765 49.5497C134.172 49.7438 134.705 49.8409 135.363 49.8409C136.244 49.8409 136.971 49.6278 137.544 49.2017C138.117 48.7756 138.403 48.108 138.403 47.1989V44.983H138.261C138.138 45.1818 137.963 45.428 137.735 45.7216C137.513 46.0104 137.191 46.2685 136.77 46.4957C136.353 46.7183 135.789 46.8295 135.079 46.8295C134.199 46.8295 133.408 46.6212 132.707 46.2045C132.011 45.7879 131.459 45.1818 131.052 44.3864C130.65 43.5909 130.449 42.625 130.449 41.4886C130.449 40.3712 130.645 39.3982 131.038 38.5696C131.431 37.7363 131.978 37.0923 132.679 36.6378C133.379 36.1785 134.189 35.9489 135.108 35.9489C135.818 35.9489 136.381 36.0672 136.798 36.304C137.219 36.536 137.541 36.8011 137.764 37.0994C137.991 37.393 138.166 37.6345 138.289 37.8239H138.46V36.0909H140.079V47.3125C140.079 48.25 139.866 49.0123 139.44 49.5994C139.019 50.1913 138.45 50.6245 137.735 50.8991C137.025 51.1785 136.234 51.3182 135.363 51.3182ZM135.306 45.3239C135.979 45.3239 136.547 45.17 137.011 44.8622C137.475 44.5545 137.828 44.1117 138.069 43.5341C138.311 42.9564 138.431 42.2652 138.431 41.4602C138.431 40.6742 138.313 39.9806 138.076 39.3793C137.84 38.7779 137.489 38.3068 137.025 37.9659C136.561 37.625 135.988 37.4545 135.306 37.4545C134.596 37.4545 134.004 37.6345 133.531 37.9943C133.062 38.3542 132.709 38.8371 132.473 39.4432C132.241 40.0492 132.125 40.7216 132.125 41.4602C132.125 42.2178 132.243 42.8878 132.48 43.4702C132.721 44.0478 133.076 44.5024 133.545 44.8338C134.019 45.1605 134.606 45.3239 135.306 45.3239ZM147.579 47.2273C146.594 47.2273 145.73 46.9929 144.987 46.5241C144.248 46.0554 143.671 45.3996 143.254 44.5568C142.842 43.714 142.636 42.7292 142.636 41.6023C142.636 40.4659 142.842 39.474 143.254 38.6264C143.671 37.7789 144.248 37.1207 144.987 36.652C145.73 36.1832 146.594 35.9489 147.579 35.9489C148.564 35.9489 149.426 36.1832 150.164 36.652C150.908 37.1207 151.485 37.7789 151.897 38.6264C152.314 39.474 152.522 40.4659 152.522 41.6023C152.522 42.7292 152.314 43.714 151.897 44.5568C151.485 45.3996 150.908 46.0554 150.164 46.5241C149.426 46.9929 148.564 47.2273 147.579 47.2273ZM147.579 45.7216C148.327 45.7216 148.943 45.5298 149.426 45.1463C149.909 44.7628 150.266 44.2585 150.498 43.6335C150.73 43.0085 150.846 42.3314 150.846 41.6023C150.846 40.8731 150.73 40.1937 150.498 39.5639C150.266 38.9342 149.909 38.4252 149.426 38.0369C148.943 37.6487 148.327 37.4545 147.579 37.4545C146.831 37.4545 146.216 37.6487 145.733 38.0369C145.25 38.4252 144.892 38.9342 144.66 39.5639C144.428 40.1937 144.312 40.8731 144.312 41.6023C144.312 42.3314 144.428 43.0085 144.66 43.6335C144.892 44.2585 145.25 44.7628 145.733 45.1463C146.216 45.5298 146.831 45.7216 147.579 45.7216ZM159.797 47H155.308V32.4545H159.996C161.407 32.4545 162.614 32.7457 163.618 33.3281C164.622 33.9058 165.391 34.7367 165.926 35.821C166.461 36.9006 166.729 38.1932 166.729 39.6989C166.729 41.214 166.459 42.5185 165.919 43.6122C165.379 44.7012 164.593 45.5393 163.561 46.1264C162.529 46.7088 161.274 47 159.797 47ZM157.07 45.4375H159.683C160.886 45.4375 161.883 45.2055 162.673 44.7415C163.464 44.2775 164.054 43.617 164.442 42.7599C164.83 41.9029 165.024 40.8826 165.024 39.6989C165.024 38.5246 164.832 37.5137 164.449 36.6662C164.065 35.8139 163.492 35.1605 162.73 34.706C161.968 34.2467 161.018 34.017 159.882 34.017H157.07V45.4375ZM169.683 47V32.4545H174.768C175.782 32.4545 176.617 32.6297 177.276 32.9801C177.934 33.3258 178.424 33.7921 178.746 34.3793C179.068 34.9616 179.229 35.608 179.229 36.3182C179.229 36.9432 179.117 37.4593 178.895 37.8665C178.677 38.2737 178.388 38.5956 178.028 38.8324C177.673 39.0691 177.287 39.2443 176.871 39.358V39.5C177.316 39.5284 177.763 39.6847 178.213 39.9688C178.663 40.2528 179.039 40.66 179.342 41.1903C179.645 41.7206 179.797 42.3693 179.797 43.1364C179.797 43.8655 179.631 44.5213 179.3 45.1037C178.968 45.6861 178.445 46.1477 177.73 46.4886C177.015 46.8295 176.085 47 174.939 47H169.683ZM171.445 45.4375H174.939C176.089 45.4375 176.906 45.215 177.389 44.7699C177.877 44.3201 178.121 43.7756 178.121 43.1364C178.121 42.6439 177.995 42.1894 177.744 41.7727C177.493 41.3513 177.136 41.0152 176.672 40.7642C176.208 40.5085 175.659 40.3807 175.024 40.3807H171.445V45.4375ZM171.445 38.8466H174.712C175.242 38.8466 175.72 38.7424 176.146 38.5341C176.577 38.3258 176.918 38.0322 177.169 37.6534C177.425 37.2746 177.553 36.8295 177.553 36.3182C177.553 35.679 177.33 35.1368 176.885 34.6918C176.44 34.242 175.734 34.017 174.768 34.017H171.445V38.8466Z" fill="#DCDCDC"/>
</svg>
