<svg width="162" height="80" viewBox="0 0 162 80" fill="none" xmlns="http://www.w3.org/2000/svg">
<rect width="80" height="80" rx="16" fill="#1E2235"/>
<path d="M28.2646 33.6175H36.6473V34.2806H29.0331V39.271H36.1932V39.9341H29.0331V45.4131H36.7346V46.0761H28.2646V33.6175ZM37.3982 33.6175H38.2889L42.2357 39.0965L46.2698 33.6175L51.7569 26.658L42.7421 39.6723L47.3875 46.0761H46.4619L42.2357 40.2482L37.992 46.0761H37.0839L41.7642 39.6723L37.3982 33.6175ZM47.7193 34.2806V33.6175H57.272V34.2806H52.8712V46.0761H52.1028V34.2806H47.7193Z" fill="white"/>
<path d="M17.7776 33.6174H18.7381L31.983 53.3419L26.5095 46.076L18.5809 34.5597L18.546 46.076H17.7776V33.6174Z" fill="white"/>
<path d="M57.1947 45.213C57.3535 45.213 57.4694 45.0919 57.4694 44.9355C57.4694 44.779 57.3535 44.658 57.1947 44.658C57.0377 44.658 56.9199 44.779 56.9199 44.9355C56.9199 45.0919 57.0377 45.213 57.1947 45.213ZM57.9497 44.4829C57.9497 44.9448 58.2843 45.2465 58.772 45.2465C59.2916 45.2465 59.6056 44.9355 59.6056 44.3954V42.4939H59.187V44.3935C59.187 44.6934 59.0356 44.8535 58.7683 44.8535C58.5291 44.8535 58.3665 44.7046 58.3609 44.4829H57.9497ZM60.1532 44.4587C60.1831 44.9392 60.5849 45.2465 61.183 45.2465C61.8222 45.2465 62.2221 44.9243 62.2221 44.4103C62.2221 44.0062 61.9941 43.7827 61.4409 43.6542L61.1437 43.5815C60.7924 43.4996 60.6503 43.3897 60.6503 43.1979C60.6503 42.9558 60.8709 42.7975 61.2017 42.7975C61.5157 42.7975 61.7324 42.952 61.7717 43.1997H62.1791C62.1548 42.7472 61.7549 42.4287 61.2073 42.4287C60.6186 42.4287 60.2261 42.7472 60.2261 43.2258C60.2261 43.6206 60.4485 43.8553 60.9363 43.9689L61.2839 44.0527C61.6409 44.1365 61.7979 44.2594 61.7979 44.4643C61.7979 44.7027 61.5512 44.8759 61.2148 44.8759C60.854 44.8759 60.6036 44.7139 60.5681 44.4587H60.1532Z" fill="white"/>
<path d="M101.295 32.4545V47H99.5909L91.6648 35.5795H91.5227V47H89.7614V32.4545H91.4659L99.4205 43.9034H99.5625V32.4545H101.295ZM109.167 47.2273C108.115 47.2273 107.209 46.9953 106.446 46.5312C105.689 46.0625 105.104 45.4091 104.692 44.571C104.285 43.7282 104.081 42.7481 104.081 41.6307C104.081 40.5133 104.285 39.5284 104.692 38.6761C105.104 37.8191 105.677 37.1515 106.411 36.6733C107.15 36.1903 108.011 35.9489 108.996 35.9489C109.564 35.9489 110.125 36.0436 110.679 36.233C111.233 36.4223 111.738 36.7301 112.192 37.1562C112.647 37.5777 113.009 38.1364 113.279 38.8324C113.549 39.5284 113.684 40.3854 113.684 41.4034V42.1136H105.275V40.6648H111.979C111.979 40.0492 111.856 39.5 111.61 39.017C111.368 38.5341 111.023 38.1529 110.573 37.8736C110.128 37.5942 109.602 37.4545 108.996 37.4545C108.328 37.4545 107.751 37.6203 107.263 37.9517C106.78 38.2784 106.408 38.7045 106.148 39.2301C105.888 39.7557 105.757 40.3191 105.757 40.9205V41.8864C105.757 42.7102 105.9 43.4086 106.184 43.9815C106.472 44.5497 106.873 44.983 107.384 45.2812C107.895 45.5748 108.489 45.7216 109.167 45.7216C109.607 45.7216 110.005 45.66 110.36 45.5369C110.72 45.4091 111.03 45.2197 111.29 44.9688C111.551 44.7131 111.752 44.3958 111.894 44.017L113.513 44.4716C113.343 45.0208 113.056 45.5038 112.654 45.9205C112.251 46.3324 111.754 46.6544 111.162 46.8864C110.57 47.1136 109.905 47.2273 109.167 47.2273ZM117.19 36.0909L119.804 40.5511L122.418 36.0909H124.349L120.827 41.5455L124.349 47H122.418L119.804 42.767L117.19 47H115.259L118.724 41.5455L115.259 36.0909H117.19ZM131.485 36.0909V37.5114H125.832V36.0909H131.485ZM127.48 33.4773H129.156V43.875C129.156 44.3485 129.225 44.7036 129.362 44.9403C129.504 45.1723 129.684 45.3286 129.902 45.4091C130.124 45.4848 130.359 45.5227 130.605 45.5227C130.789 45.5227 130.941 45.5133 131.059 45.4943C131.178 45.4706 131.272 45.4517 131.343 45.4375L131.684 46.9432C131.571 46.9858 131.412 47.0284 131.208 47.071C131.005 47.1184 130.747 47.142 130.434 47.142C129.961 47.142 129.497 47.0402 129.042 46.8366C128.592 46.633 128.218 46.3229 127.92 45.9062C127.627 45.4896 127.48 44.964 127.48 44.3295V33.4773ZM145.427 32.4545H147.189V42.8523C147.189 43.7803 147.018 44.5687 146.677 45.2173C146.336 45.866 145.856 46.3584 145.235 46.6946C144.615 47.0308 143.884 47.1989 143.041 47.1989C142.245 47.1989 141.538 47.0545 140.917 46.7656C140.297 46.4721 139.809 46.0554 139.454 45.5156C139.099 44.9759 138.922 44.3343 138.922 43.5909H140.654C140.654 44.0028 140.756 44.3627 140.96 44.6705C141.168 44.9735 141.452 45.2102 141.812 45.3807C142.172 45.5511 142.582 45.6364 143.041 45.6364C143.547 45.6364 143.978 45.5298 144.333 45.3168C144.689 45.1037 144.958 44.7912 145.143 44.3793C145.333 43.9626 145.427 43.4536 145.427 42.8523V32.4545ZM158.673 36.0909C158.588 35.3712 158.242 34.8125 157.636 34.4148C157.03 34.017 156.287 33.8182 155.406 33.8182C154.762 33.8182 154.199 33.9223 153.716 34.1307C153.237 34.339 152.863 34.6255 152.593 34.9901C152.328 35.3546 152.196 35.7689 152.196 36.233C152.196 36.6212 152.288 36.955 152.473 37.2344C152.662 37.509 152.904 37.7386 153.197 37.9233C153.491 38.1032 153.798 38.2524 154.12 38.3707C154.442 38.4844 154.738 38.5767 155.008 38.6477L156.485 39.0455C156.864 39.1449 157.286 39.2822 157.75 39.4574C158.218 39.6326 158.666 39.8717 159.092 40.1747C159.523 40.473 159.878 40.8565 160.157 41.3253C160.437 41.794 160.576 42.3693 160.576 43.0511C160.576 43.8371 160.37 44.5473 159.958 45.1818C159.551 45.8163 158.955 46.3205 158.169 46.6946C157.387 47.0687 156.438 47.2557 155.321 47.2557C154.279 47.2557 153.377 47.0876 152.615 46.7514C151.857 46.4152 151.261 45.9465 150.825 45.3452C150.394 44.7438 150.15 44.0455 150.093 43.25H151.912C151.959 43.7992 152.144 44.2538 152.466 44.6136C152.792 44.9687 153.204 45.2339 153.701 45.4091C154.203 45.5795 154.743 45.6648 155.321 45.6648C155.993 45.6648 156.597 45.5559 157.132 45.3381C157.667 45.1155 158.091 44.8078 158.403 44.4148C158.716 44.017 158.872 43.553 158.872 43.0227C158.872 42.5398 158.737 42.1468 158.467 41.8438C158.197 41.5407 157.842 41.2945 157.402 41.1051C156.961 40.9157 156.485 40.75 155.974 40.608L154.184 40.0966C153.048 39.7699 152.148 39.3035 151.485 38.6974C150.823 38.0914 150.491 37.2983 150.491 36.3182C150.491 35.5038 150.711 34.7936 151.152 34.1875C151.597 33.5767 152.193 33.1032 152.941 32.767C153.694 32.4261 154.535 32.2557 155.463 32.2557C156.4 32.2557 157.234 32.4238 157.963 32.7599C158.692 33.0914 159.27 33.5459 159.696 34.1236C160.127 34.7012 160.354 35.357 160.377 36.0909H158.673Z" fill="#DCDCDC"/>
</svg>
