<svg width="169" height="80" viewBox="0 0 169 80" fill="none" xmlns="http://www.w3.org/2000/svg">
<rect width="80" height="80" rx="16" fill="#1E2235"/>
<path d="M38.18 18.2517C39.282 17.621 40.7174 17.6181 41.8185 18.2517C47.3578 21.3818 52.8989 24.5069 58.4374 27.6388C59.4791 28.2256 60.1759 29.3849 60.1653 30.5853V49.4168C60.173 50.6668 59.4074 51.8538 58.3084 52.4273C52.7872 55.5401 47.2689 58.6566 41.7486 61.7694C40.6238 62.4126 39.1596 62.363 38.07 61.6672C36.4147 60.7076 34.7566 59.7528 33.1012 58.7942C32.763 58.5925 32.3816 58.432 32.1428 58.1041C32.3539 57.8195 32.7315 57.784 33.0382 57.6597C33.7292 57.44 34.3638 57.0874 34.9985 56.7451C35.159 56.6353 35.355 56.6774 35.5088 56.7757C36.9243 57.5872 38.3272 58.4224 39.7474 59.2262C40.0503 59.4011 40.3571 59.1689 40.6161 59.0245C46.034 55.9624 51.4587 52.9118 56.8757 49.8487C57.0764 49.7522 57.1873 49.5391 57.171 49.3193C57.1748 43.1071 57.172 36.8939 57.1729 30.6818C57.1959 30.4324 57.0515 30.203 56.826 30.1009C51.324 27.0024 45.8248 23.8991 40.3237 20.7997C40.2284 20.7342 40.1155 20.6991 39.9998 20.6989C39.8842 20.6987 39.7712 20.7336 39.6757 20.7988C34.1746 23.8991 28.6764 27.0052 23.1753 30.1036C22.9505 30.2058 22.7997 30.4314 22.8264 30.6818C22.8274 36.8939 22.8264 43.1071 22.8264 49.3202C22.8169 49.4275 22.8405 49.5351 22.894 49.6286C22.9474 49.7221 23.0283 49.7969 23.1256 49.843C24.5936 50.6755 26.0635 51.5021 27.5324 52.3317C28.36 52.7771 29.376 53.0418 30.2878 52.7005C31.0924 52.4119 31.6564 51.5909 31.641 50.7366C31.6486 44.5607 31.6372 38.3839 31.6467 32.209C31.6266 31.9348 31.8867 31.7083 32.1532 31.7341C32.8586 31.7294 33.5649 31.7246 34.2702 31.736C34.5646 31.7294 34.7672 32.0246 34.7308 32.3008C34.728 38.5158 34.7384 44.7309 34.7261 50.9458C34.728 52.6022 34.0475 54.4045 32.5154 55.2149C30.6279 56.1927 28.2951 55.9853 26.4304 55.0478C24.8162 54.2421 23.2757 53.2912 21.6901 52.4281C20.5882 51.8578 19.8264 50.666 19.8341 49.4169V30.5853C19.8226 29.3601 20.5471 28.1797 21.6212 27.6015C27.1414 24.4862 32.6607 21.3685 38.18 18.2517Z" fill="#8CC84B"/>
<path d="M42.996 31.2965C45.4036 31.1415 47.9811 31.2047 50.1476 32.3908C51.825 33.2997 52.7549 35.2072 52.7845 37.0708C52.7377 37.3221 52.4749 37.4608 52.235 37.4435C51.5364 37.4426 50.8377 37.453 50.1392 37.4388C49.8429 37.4502 49.6707 37.177 49.6335 36.915C49.4327 36.0234 48.9465 35.1403 48.1072 34.7102C46.8189 34.0651 45.3251 34.0976 43.9203 34.1111C42.8947 34.1655 41.7919 34.2543 40.9231 34.8574C40.256 35.3142 40.0534 36.2364 40.2915 36.9791C40.5159 37.5124 41.1315 37.6845 41.6352 37.8431C44.5367 38.6019 47.6113 38.5264 50.4574 39.5251C51.6357 39.9322 52.7883 40.7236 53.1917 41.9574C53.7193 43.6109 53.488 45.5873 52.3116 46.9147C51.3576 48.0071 49.9681 48.6016 48.5823 48.9245C46.7386 49.3356 44.8254 49.346 42.9531 49.1635C41.1926 48.9628 39.3606 48.5003 38.0015 47.3008C36.8393 46.2917 36.2717 44.7194 36.328 43.2018C36.3415 42.9456 36.5967 42.7669 36.8422 42.7879C37.5456 42.7822 38.2491 42.7803 38.9525 42.7889C39.2335 42.7687 39.4418 43.0116 39.4562 43.2764C39.586 44.1259 39.9052 45.0176 40.646 45.5213C42.0757 46.4436 43.8696 46.3805 45.5067 46.4063C46.8629 46.3461 48.3853 46.3279 49.4921 45.4315C50.076 44.9202 50.249 44.0648 50.0912 43.3289C49.9203 42.7076 49.2703 42.4181 48.7122 42.2288C45.8479 41.3228 42.739 41.6515 39.9024 40.6269C38.7508 40.22 37.6373 39.4505 37.1948 38.2674C36.5775 36.593 36.8604 34.522 38.1601 33.2393C39.4274 31.9635 41.2567 31.4722 42.996 31.2963V31.2965Z" fill="#8CC84B"/>
<path d="M101.295 32.4545V47H99.5909L91.6648 35.5795H91.5227V47H89.7614V32.4545H91.4659L99.4205 43.9034H99.5625V32.4545H101.295ZM109.025 47.2273C108.04 47.2273 107.176 46.9929 106.432 46.5241C105.694 46.0554 105.116 45.3996 104.699 44.5568C104.287 43.714 104.081 42.7292 104.081 41.6023C104.081 40.4659 104.287 39.474 104.699 38.6264C105.116 37.7789 105.694 37.1207 106.432 36.652C107.176 36.1832 108.04 35.9489 109.025 35.9489C110.009 35.9489 110.871 36.1832 111.61 36.652C112.353 37.1207 112.931 37.7789 113.343 38.6264C113.759 39.474 113.968 40.4659 113.968 41.6023C113.968 42.7292 113.759 43.714 113.343 44.5568C112.931 45.3996 112.353 46.0554 111.61 46.5241C110.871 46.9929 110.009 47.2273 109.025 47.2273ZM109.025 45.7216C109.773 45.7216 110.388 45.5298 110.871 45.1463C111.354 44.7628 111.712 44.2585 111.944 43.6335C112.176 43.0085 112.292 42.3314 112.292 41.6023C112.292 40.8731 112.176 40.1937 111.944 39.5639C111.712 38.9342 111.354 38.4252 110.871 38.0369C110.388 37.6487 109.773 37.4545 109.025 37.4545C108.276 37.4545 107.661 37.6487 107.178 38.0369C106.695 38.4252 106.337 38.9342 106.105 39.5639C105.873 40.1937 105.757 40.8731 105.757 41.6023C105.757 42.3314 105.873 43.0085 106.105 43.6335C106.337 44.2585 106.695 44.7628 107.178 45.1463C107.661 45.5298 108.276 45.7216 109.025 45.7216ZM120.646 47.2273C119.737 47.2273 118.934 46.9976 118.238 46.5384C117.542 46.0743 116.997 45.4209 116.604 44.5781C116.211 43.7306 116.015 42.7292 116.015 41.5739C116.015 40.428 116.211 39.4337 116.604 38.5909C116.997 37.7481 117.544 37.0971 118.245 36.6378C118.946 36.1785 119.755 35.9489 120.674 35.9489C121.384 35.9489 121.945 36.0672 122.357 36.304C122.774 36.536 123.091 36.8011 123.309 37.0994C123.531 37.393 123.704 37.6345 123.827 37.8239H123.969V32.4545H125.646V47H124.026V45.3239H123.827C123.704 45.5227 123.529 45.7737 123.302 46.0767C123.075 46.375 122.75 46.6425 122.329 46.8793C121.907 47.1113 121.346 47.2273 120.646 47.2273ZM120.873 45.7216C121.545 45.7216 122.113 45.5464 122.577 45.196C123.041 44.8409 123.394 44.3509 123.636 43.7259C123.877 43.0961 123.998 42.3693 123.998 41.5455C123.998 40.7311 123.879 40.0185 123.643 39.4077C123.406 38.7921 123.056 38.3139 122.592 37.973C122.128 37.6274 121.555 37.4545 120.873 37.4545C120.163 37.4545 119.571 37.6368 119.097 38.0014C118.629 38.3613 118.276 38.8513 118.039 39.4716C117.807 40.0871 117.691 40.7784 117.691 41.5455C117.691 42.322 117.809 43.0275 118.046 43.6619C118.288 44.2917 118.643 44.7936 119.112 45.1676C119.585 45.5369 120.172 45.7216 120.873 45.7216ZM133.522 47.2273C132.471 47.2273 131.564 46.9953 130.802 46.5312C130.044 46.0625 129.46 45.4091 129.048 44.571C128.64 43.7282 128.437 42.7481 128.437 41.6307C128.437 40.5133 128.64 39.5284 129.048 38.6761C129.46 37.8191 130.032 37.1515 130.766 36.6733C131.505 36.1903 132.367 35.9489 133.352 35.9489C133.92 35.9489 134.481 36.0436 135.035 36.233C135.589 36.4223 136.093 36.7301 136.548 37.1562C137.002 37.5777 137.364 38.1364 137.634 38.8324C137.904 39.5284 138.039 40.3854 138.039 41.4034V42.1136H129.63V40.6648H136.335C136.335 40.0492 136.211 39.5 135.965 39.017C135.724 38.5341 135.378 38.1529 134.928 37.8736C134.483 37.5942 133.958 37.4545 133.352 37.4545C132.684 37.4545 132.106 37.6203 131.619 37.9517C131.136 38.2784 130.764 38.7045 130.504 39.2301C130.243 39.7557 130.113 40.3191 130.113 40.9205V41.8864C130.113 42.7102 130.255 43.4086 130.539 43.9815C130.828 44.5497 131.228 44.983 131.739 45.2812C132.251 45.5748 132.845 45.7216 133.522 45.7216C133.962 45.7216 134.36 45.66 134.715 45.5369C135.075 45.4091 135.385 45.2197 135.646 44.9688C135.906 44.7131 136.107 44.3958 136.249 44.017L137.869 44.4716C137.698 45.0208 137.412 45.5038 137.009 45.9205C136.607 46.3324 136.11 46.6544 135.518 46.8864C134.926 47.1136 134.261 47.2273 133.522 47.2273ZM152.009 32.4545H153.771V42.8523C153.771 43.7803 153.6 44.5687 153.259 45.2173C152.918 45.866 152.438 46.3584 151.817 46.6946C151.197 47.0308 150.466 47.1989 149.623 47.1989C148.827 47.1989 148.12 47.0545 147.499 46.7656C146.879 46.4721 146.391 46.0554 146.036 45.5156C145.681 44.9759 145.504 44.3343 145.504 43.5909H147.237C147.237 44.0028 147.338 44.3627 147.542 44.6705C147.75 44.9735 148.034 45.2102 148.394 45.3807C148.754 45.5511 149.164 45.6364 149.623 45.6364C150.129 45.6364 150.56 45.5298 150.915 45.3168C151.271 45.1037 151.54 44.7912 151.725 44.3793C151.915 43.9626 152.009 43.4536 152.009 42.8523V32.4545ZM165.255 36.0909C165.17 35.3712 164.824 34.8125 164.218 34.4148C163.612 34.017 162.869 33.8182 161.988 33.8182C161.344 33.8182 160.781 33.9223 160.298 34.1307C159.819 34.339 159.445 34.6255 159.175 34.9901C158.91 35.3546 158.778 35.7689 158.778 36.233C158.778 36.6212 158.87 36.955 159.055 37.2344C159.244 37.509 159.486 37.7386 159.779 37.9233C160.073 38.1032 160.38 38.2524 160.702 38.3707C161.024 38.4844 161.32 38.5767 161.59 38.6477L163.067 39.0455C163.446 39.1449 163.868 39.2822 164.332 39.4574C164.8 39.6326 165.248 39.8717 165.674 40.1747C166.105 40.473 166.46 40.8565 166.739 41.3253C167.019 41.794 167.158 42.3693 167.158 43.0511C167.158 43.8371 166.952 44.5473 166.54 45.1818C166.133 45.8163 165.537 46.3205 164.751 46.6946C163.969 47.0687 163.02 47.2557 161.903 47.2557C160.861 47.2557 159.959 47.0876 159.197 46.7514C158.439 46.4152 157.843 45.9465 157.407 45.3452C156.976 44.7438 156.732 44.0455 156.675 43.25H158.494C158.541 43.7992 158.726 44.2538 159.048 44.6136C159.374 44.9687 159.786 45.2339 160.283 45.4091C160.785 45.5795 161.325 45.6648 161.903 45.6648C162.575 45.6648 163.179 45.5559 163.714 45.3381C164.249 45.1155 164.673 44.8078 164.985 44.4148C165.298 44.017 165.454 43.553 165.454 43.0227C165.454 42.5398 165.319 42.1468 165.049 41.8438C164.779 41.5407 164.424 41.2945 163.984 41.1051C163.543 40.9157 163.067 40.75 162.556 40.608L160.766 40.0966C159.63 39.7699 158.73 39.3035 158.067 38.6974C157.405 38.0914 157.073 37.2983 157.073 36.3182C157.073 35.5038 157.293 34.7936 157.734 34.1875C158.179 33.5767 158.775 33.1032 159.523 32.767C160.276 32.4261 161.117 32.2557 162.045 32.2557C162.982 32.2557 163.816 32.4238 164.545 32.7599C165.274 33.0914 165.852 33.5459 166.278 34.1236C166.709 34.7012 166.936 35.357 166.96 36.0909H165.255Z" fill="#DCDCDC"/>
</svg>
