<svg width="201" height="80" viewBox="0 0 201 80" fill="none" xmlns="http://www.w3.org/2000/svg">
<rect width="80" height="80" rx="16" fill="#1E2235"/>
<path d="M61.3814 44.4008C61.123 43.616 60.4461 43.0695 59.5708 42.9383C59.158 42.8765 58.6854 42.9029 58.126 43.0185C57.151 43.2202 56.4277 43.297 55.8998 43.3119C57.8923 39.9384 59.5126 36.0915 60.4453 32.4703C61.9536 26.6148 61.1476 23.9473 60.2057 22.7407C57.7132 19.547 54.0767 17.8314 49.6896 17.7789C47.3493 17.7502 45.2948 18.2135 44.223 18.5467C43.2251 18.3702 42.1522 18.2716 41.0264 18.2534C38.916 18.2196 37.0514 18.6809 35.4581 19.6291C34.576 19.33 33.1603 18.9083 31.5255 18.6392C27.6804 18.0062 24.5814 18.4995 22.3146 20.1052C19.5698 22.0495 18.2974 25.4275 18.5327 30.1454C18.6074 31.6433 19.443 36.2009 20.7587 40.5231C21.5149 43.0075 22.3212 45.0706 23.1553 46.6556C24.3382 48.9031 25.6039 50.2267 27.0248 50.702C27.8211 50.9681 29.2681 51.1544 30.79 49.8834C30.9829 50.1176 31.2403 50.3504 31.5819 50.5667C32.0157 50.841 32.5461 51.0651 33.0758 51.198C34.9849 51.6765 36.7731 51.5568 38.2987 50.886C38.3081 51.1581 38.3154 51.4181 38.3214 51.6426C38.3315 52.0067 38.3416 52.3637 38.3549 52.6976C38.4453 54.9551 38.5985 56.7104 39.0523 57.9386C39.0772 58.0061 39.1107 58.1091 39.1461 58.2183C39.3725 58.9134 39.7511 60.0771 40.7143 60.9885C41.7117 61.9325 42.9181 62.222 44.023 62.222C44.5772 62.222 45.1059 62.1491 45.5697 62.0495C47.2227 61.6942 49.1001 61.153 50.4582 59.2139C51.7423 57.3807 52.3665 54.6197 52.4794 50.2692C52.4941 50.1462 52.5075 50.0287 52.5205 49.9168L52.5474 49.6869L52.8499 49.7135L52.9279 49.7188C54.6115 49.7957 56.6702 49.4377 57.9346 48.8488C58.9337 48.3839 62.1352 46.689 61.3814 44.4008" fill="#1E2235"/>
<path d="M58.5026 44.8458C53.4964 45.8814 53.1521 44.1817 53.1521 44.1817C58.4378 36.3169 60.6475 26.3336 58.7408 23.8903C53.5386 17.2252 44.5336 20.3774 44.3833 20.4591L44.335 20.4679C43.3459 20.2619 42.2391 20.1394 40.9949 20.119C38.7298 20.0818 37.0115 20.7145 35.7076 21.706C35.7076 21.706 19.6435 15.0698 20.3908 30.0521C20.5497 33.2394 24.9465 54.1689 30.1908 47.8472C32.1076 45.5355 33.9598 43.581 33.9598 43.581C34.8795 44.1937 35.9808 44.5063 37.1352 44.3941L37.2249 44.3178C37.197 44.6048 37.2098 44.8855 37.2608 45.2178C35.9097 46.7314 36.3068 46.9971 33.6061 47.5547C30.8732 48.1195 32.4786 49.1248 33.5268 49.3878C34.7976 49.7064 37.7373 50.1577 39.7237 47.3693L39.6446 47.6875C40.1738 48.1127 40.5455 50.453 40.4832 52.5746C40.4209 54.6961 40.3793 56.1526 40.7963 57.2903C41.2136 58.428 41.6292 60.9879 45.1797 60.2251C48.1462 59.5875 49.6836 57.9355 49.8976 55.1797C50.0492 53.2206 50.3928 53.5102 50.4144 51.7586L50.6899 50.9295C51.0076 48.2738 50.7404 47.4169 52.568 47.8155L53.0124 47.8546C54.3574 47.9159 56.1182 47.6376 57.1516 47.156C59.3766 46.1206 60.6963 44.3916 58.5023 44.8458H58.5026" fill="#0E7490"/>
<path d="M36.6479 31.4774C36.1968 31.4144 35.7883 31.4727 35.5816 31.6297C35.4654 31.7179 35.4294 31.8202 35.4196 31.8906C35.3937 32.0771 35.524 32.2834 35.6041 32.3897C35.8307 32.6909 36.1616 32.8978 36.4892 32.9434C36.5367 32.9502 36.584 32.9532 36.6309 32.9532C37.1772 32.9532 37.6739 32.5266 37.7177 32.2118C37.7724 31.8175 37.2016 31.5547 36.6479 31.4776V31.4774ZM51.5932 31.4899C51.5502 31.1808 51.0017 31.0927 50.4812 31.1653C49.9614 31.2379 49.4574 31.4732 49.4995 31.7829C49.5332 32.0238 49.967 32.435 50.4804 32.435C50.5238 32.435 50.5676 32.4321 50.6117 32.4259C50.9544 32.3783 51.2059 32.16 51.3254 32.0343C51.5072 31.8425 51.6126 31.6288 51.5932 31.4899" fill="#1E2235"/>
<path d="M60.1685 44.7282C59.9776 44.1494 59.3632 43.9632 58.3424 44.1746C55.3115 44.8018 54.2261 44.3673 53.8698 44.1042C56.2256 40.5054 58.1636 36.1551 59.2091 32.0963C59.7044 30.1737 59.9779 28.3881 60.0003 26.9328C60.0251 25.3354 59.7537 24.1616 59.1942 23.4445C56.9382 20.5538 53.627 19.0032 49.619 18.9607C46.8636 18.9296 44.5355 19.6367 44.0842 19.8356C43.1338 19.5986 42.0977 19.4531 40.9697 19.4345C38.9012 19.4009 37.1132 19.8975 35.6329 20.9098C34.9898 20.6698 33.328 20.0977 31.2957 19.7694C27.7823 19.2023 24.9903 19.632 22.9979 21.0474C20.6205 22.7364 19.523 25.7555 19.7356 30.0208C19.8072 31.4557 20.6226 35.8702 21.9093 40.0977C23.6031 45.662 25.4443 48.812 27.3815 49.46C27.6082 49.5358 27.8697 49.5888 28.158 49.5888C28.8647 49.5888 29.7311 49.2694 30.6325 48.1827C31.732 46.8601 32.8693 45.5696 34.0431 44.3128C34.8047 44.7227 35.6413 44.9515 36.4969 44.9745C36.4986 44.997 36.5008 45.0194 36.5028 45.0417C36.3555 45.2178 36.2113 45.3965 36.0702 45.5776C35.4773 46.3323 35.3539 46.4895 33.4455 46.8835C32.9027 46.9959 31.4609 47.2938 31.4397 48.3073C31.4168 49.4146 33.144 49.8796 33.3408 49.9289C34.0266 50.1011 34.6873 50.186 35.3174 50.186C36.8497 50.186 38.1983 49.681 39.2759 48.7038C39.2428 52.6513 39.4069 56.5411 39.8796 57.7263C40.2667 58.6965 41.2124 61.0676 44.1997 61.0675C44.638 61.0675 45.1205 61.0163 45.6512 60.9022C48.7689 60.2321 50.1228 58.8503 50.6465 55.804C50.9268 54.1759 51.4077 50.2883 51.634 48.203C52.1114 48.3523 52.7259 48.4207 53.3904 48.4205C54.7761 48.4205 56.3751 48.1253 57.3778 47.6586C58.5043 47.1339 60.5371 45.8467 60.1685 44.7282V44.7282ZM52.744 30.6369C52.7337 31.2525 52.6492 31.8114 52.5596 32.3948C52.4632 33.0222 52.3635 33.6709 52.3384 34.4583C52.3137 35.2247 52.4091 36.0214 52.5014 36.792C52.6879 38.3483 52.8793 39.9505 52.1385 41.5315C52.0154 41.3129 51.9058 41.0869 51.8102 40.8548C51.7181 40.631 51.5182 40.2714 51.2412 39.7738C50.1641 37.8367 47.6416 33.3004 48.9329 31.4493C49.3175 30.8983 50.2937 30.3319 52.744 30.6369V30.6369ZM49.7739 20.2073C53.3651 20.2868 56.2059 21.634 58.2172 24.2112C59.7598 26.188 58.0611 35.1828 53.1436 42.9427C53.0941 42.8796 53.0444 42.8168 52.9944 42.7541L52.9322 42.6761C54.2029 40.5717 53.9544 38.4896 53.7333 36.6436C53.6424 35.886 53.5565 35.1705 53.5784 34.4983C53.6009 33.786 53.6949 33.1749 53.7858 32.5841C53.8974 31.8561 54.011 31.1028 53.9797 30.2147C54.0031 30.1215 54.0125 30.0115 54.0002 29.8808C53.9203 29.0292 52.9507 26.4805 50.9744 24.1737C49.8934 22.912 48.317 21.5 46.1645 20.5476C47.0903 20.3552 48.3563 20.1757 49.7739 20.2073V20.2073ZM29.6786 47.3873C28.6854 48.5848 27.9996 48.3552 27.774 48.2799C26.3045 47.7884 24.5993 44.6737 23.0959 39.7346C21.795 35.461 21.0348 31.1635 20.9745 29.9585C20.7847 26.1473 21.706 23.4913 23.713 22.0639C26.9793 19.7412 32.3495 21.1315 34.5074 21.8365C34.4764 21.8673 34.4441 21.896 34.4135 21.9272C30.8724 25.5132 30.9564 31.6399 30.9651 32.0144C30.9648 32.1589 30.9769 32.3635 30.9934 32.6449C31.0544 33.6754 31.1678 35.5933 30.8648 37.7653C30.5834 39.7836 31.2038 41.759 32.5668 43.1852C32.7067 43.3313 32.8537 43.4704 33.0074 43.6018C32.4007 44.2534 31.0821 45.6943 29.6786 47.3873V47.3873ZM33.4625 42.3245C32.364 41.175 31.865 39.5761 32.0935 37.9374C32.4133 35.6431 32.2953 33.6449 32.2318 32.5713C32.2229 32.4211 32.215 32.2894 32.2105 32.1856C32.7278 31.7256 35.125 30.4377 36.8346 30.8305C37.6146 31.0096 38.09 31.5423 38.2876 32.4586C39.3104 37.2023 38.423 39.1795 37.7099 40.7684C37.563 41.0957 37.4241 41.4051 37.3056 41.7251L37.2137 41.9726C36.981 42.5981 36.7646 43.1798 36.6304 43.7321C35.4625 43.7288 34.3264 43.2284 33.4625 42.3244V42.3245ZM33.6418 48.722C33.3008 48.6366 32.9941 48.4882 32.8141 48.3652C32.9644 48.2943 33.2319 48.1977 33.6958 48.1018C35.9409 47.6385 36.2877 47.3114 37.0448 46.3473C37.2184 46.1262 37.4152 45.8757 37.6877 45.5705L37.688 45.5702C38.0939 45.1144 38.2796 45.1917 38.6162 45.3318C38.8891 45.4449 39.1549 45.7879 39.2626 46.1654C39.3136 46.3436 39.3709 46.6819 39.1835 46.9452C37.6019 49.166 35.297 49.1374 33.6418 48.722V48.722ZM45.3913 59.6858C42.6448 60.276 41.6723 58.8707 41.0315 57.2643C40.6179 56.2272 40.4145 51.5504 40.5588 46.3857C40.5607 46.317 40.5509 46.2506 40.532 46.1882C40.5152 46.0648 40.4895 45.9429 40.4553 45.8232C40.2408 45.0717 39.7181 44.4431 39.0911 44.1825C38.842 44.079 38.3848 43.8891 37.8353 44.0301C37.9525 43.546 38.1557 42.9992 38.376 42.4072L38.4684 42.1583C38.5725 41.8775 38.7031 41.5867 38.8411 41.2788C39.5873 39.6165 40.6093 37.3396 39.5002 32.1957C39.0847 30.2691 37.6973 29.3282 35.5941 29.5468C34.3333 29.6776 33.1797 30.1877 32.6044 30.4802C32.4806 30.543 32.3675 30.6038 32.2618 30.6629C32.4224 28.7217 33.0291 25.0939 35.2985 22.7985C36.7275 21.3536 38.6305 20.6399 40.9492 20.6784C45.5177 20.7534 48.4474 23.1044 50.1008 25.0636C51.5256 26.7518 52.297 28.4524 52.6049 29.3697C50.2895 29.1336 48.7147 29.5918 47.9165 30.7363C46.1798 33.2257 48.8666 38.0575 50.1579 40.3796C50.3947 40.8052 50.5991 41.173 50.6634 41.3293C51.0839 42.3512 51.6282 43.0335 52.0257 43.5314C52.1476 43.684 52.2657 43.8321 52.3556 43.9614C51.6543 44.1641 50.3947 44.6325 50.5095 46.9739C50.4169 48.1488 49.7586 53.6493 49.4241 55.5926C48.9825 58.1601 48.0404 59.1163 45.3913 59.686V59.6858ZM56.8555 46.5303C56.1384 46.864 54.9384 47.1144 53.7984 47.1682C52.5393 47.2273 51.8983 47.0268 51.7474 46.9034C51.6767 45.4443 52.2183 45.2918 52.7914 45.1305C52.8815 45.1052 52.9694 45.0803 53.0542 45.0506C53.1069 45.0937 53.1646 45.1364 53.2279 45.1782C54.2399 45.848 56.045 45.9203 58.5934 45.3928L58.6213 45.3872C58.2776 45.7095 57.6894 46.1419 56.8555 46.5303Z" fill="#1E2235"/>
<path d="M89.7614 47V32.4545H94.6761C95.8172 32.4545 96.75 32.6605 97.4744 33.0724C98.2036 33.4796 98.7434 34.0312 99.0938 34.7273C99.4441 35.4233 99.6193 36.1998 99.6193 37.0568C99.6193 37.9138 99.4441 38.6927 99.0938 39.3935C98.7481 40.0942 98.2131 40.6529 97.4886 41.0696C96.7642 41.4815 95.8362 41.6875 94.7045 41.6875H91.1818V40.125H94.6477C95.429 40.125 96.0563 39.9901 96.5298 39.7202C97.0033 39.4503 97.3466 39.0857 97.5597 38.6264C97.7775 38.1624 97.8864 37.6392 97.8864 37.0568C97.8864 36.4744 97.7775 35.9536 97.5597 35.4943C97.3466 35.035 97.0009 34.6752 96.5227 34.4148C96.0445 34.1496 95.41 34.017 94.6193 34.017H91.5227V47H89.7614ZM106.544 47.2273C105.559 47.2273 104.695 46.9929 103.952 46.5241C103.213 46.0554 102.635 45.3996 102.219 44.5568C101.807 43.714 101.601 42.7292 101.601 41.6023C101.601 40.4659 101.807 39.474 102.219 38.6264C102.635 37.7789 103.213 37.1207 103.952 36.652C104.695 36.1832 105.559 35.9489 106.544 35.9489C107.529 35.9489 108.391 36.1832 109.129 36.652C109.873 37.1207 110.45 37.7789 110.862 38.6264C111.279 39.474 111.487 40.4659 111.487 41.6023C111.487 42.7292 111.279 43.714 110.862 44.5568C110.45 45.3996 109.873 46.0554 109.129 46.5241C108.391 46.9929 107.529 47.2273 106.544 47.2273ZM106.544 45.7216C107.292 45.7216 107.908 45.5298 108.391 45.1463C108.874 44.7628 109.231 44.2585 109.463 43.6335C109.695 43.0085 109.811 42.3314 109.811 41.6023C109.811 40.8731 109.695 40.1937 109.463 39.5639C109.231 38.9342 108.874 38.4252 108.391 38.0369C107.908 37.6487 107.292 37.4545 106.544 37.4545C105.796 37.4545 105.18 37.6487 104.697 38.0369C104.214 38.4252 103.857 38.9342 103.625 39.5639C103.393 40.1937 103.277 40.8731 103.277 41.6023C103.277 42.3314 103.393 43.0085 103.625 43.6335C103.857 44.2585 104.214 44.7628 104.697 45.1463C105.18 45.5298 105.796 45.7216 106.544 45.7216ZM121.773 38.5341L120.267 38.9602C120.173 38.7093 120.033 38.4654 119.848 38.2287C119.668 37.9872 119.422 37.7884 119.11 37.6321C118.797 37.4759 118.397 37.3977 117.909 37.3977C117.242 37.3977 116.685 37.5516 116.24 37.8594C115.8 38.1624 115.58 38.5483 115.58 39.017C115.58 39.4337 115.731 39.7628 116.034 40.0043C116.337 40.2457 116.811 40.447 117.455 40.608L119.074 41.0057C120.05 41.2424 120.776 41.6046 121.255 42.0923C121.733 42.5753 121.972 43.1979 121.972 43.9602C121.972 44.5852 121.792 45.1439 121.432 45.6364C121.077 46.1288 120.58 46.517 119.941 46.8011C119.301 47.0852 118.558 47.2273 117.711 47.2273C116.598 47.2273 115.677 46.9858 114.948 46.5028C114.219 46.0199 113.757 45.3144 113.563 44.3864L115.154 43.9886C115.305 44.5758 115.592 45.0161 116.013 45.3097C116.439 45.6032 116.996 45.75 117.682 45.75C118.463 45.75 119.084 45.5843 119.543 45.2528C120.007 44.9167 120.239 44.5142 120.239 44.0455C120.239 43.6667 120.106 43.3494 119.841 43.0938C119.576 42.8333 119.169 42.6392 118.62 42.5114L116.801 42.0852C115.802 41.8485 115.069 41.4815 114.6 40.9844C114.136 40.4825 113.904 39.8551 113.904 39.1023C113.904 38.4867 114.077 37.9422 114.422 37.4688C114.773 36.9953 115.248 36.6236 115.85 36.3537C116.456 36.0838 117.142 35.9489 117.909 35.9489C118.989 35.9489 119.837 36.1856 120.452 36.6591C121.072 37.1326 121.513 37.7576 121.773 38.5341ZM129.239 36.0909V37.5114H123.586V36.0909H129.239ZM125.234 33.4773H126.91V43.875C126.91 44.3485 126.978 44.7036 127.116 44.9403C127.258 45.1723 127.438 45.3286 127.656 45.4091C127.878 45.4848 128.112 45.5227 128.359 45.5227C128.543 45.5227 128.695 45.5133 128.813 45.4943C128.932 45.4706 129.026 45.4517 129.097 45.4375L129.438 46.9432C129.325 46.9858 129.166 47.0284 128.962 47.071C128.759 47.1184 128.501 47.142 128.188 47.142C127.715 47.142 127.251 47.0402 126.796 46.8366C126.346 46.633 125.972 46.3229 125.674 45.9062C125.38 45.4896 125.234 44.964 125.234 44.3295V33.4773ZM136.047 51.3182C135.237 51.3182 134.541 51.214 133.959 51.0057C133.376 50.8021 132.891 50.5322 132.503 50.196C132.119 49.8646 131.814 49.5095 131.587 49.1307L132.922 48.1932C133.073 48.392 133.265 48.6193 133.497 48.875C133.729 49.1354 134.046 49.3603 134.449 49.5497C134.856 49.7438 135.389 49.8409 136.047 49.8409C136.928 49.8409 137.654 49.6278 138.227 49.2017C138.8 48.7756 139.087 48.108 139.087 47.1989V44.983H138.945C138.821 45.1818 138.646 45.428 138.419 45.7216C138.196 46.0104 137.875 46.2685 137.453 46.4957C137.036 46.7183 136.473 46.8295 135.763 46.8295C134.882 46.8295 134.091 46.6212 133.391 46.2045C132.695 45.7879 132.143 45.1818 131.736 44.3864C131.333 43.5909 131.132 42.625 131.132 41.4886C131.132 40.3712 131.329 39.3982 131.722 38.5696C132.115 37.7363 132.661 37.0923 133.362 36.6378C134.063 36.1785 134.873 35.9489 135.791 35.9489C136.501 35.9489 137.065 36.0672 137.482 36.304C137.903 36.536 138.225 36.8011 138.447 37.0994C138.675 37.393 138.85 37.6345 138.973 37.8239H139.143V36.0909H140.763V47.3125C140.763 48.25 140.55 49.0123 140.124 49.5994C139.702 50.1913 139.134 50.6245 138.419 50.8991C137.709 51.1785 136.918 51.3182 136.047 51.3182ZM135.99 45.3239C136.662 45.3239 137.231 45.17 137.695 44.8622C138.159 44.5545 138.511 44.1117 138.753 43.5341C138.994 42.9564 139.115 42.2652 139.115 41.4602C139.115 40.6742 138.997 39.9806 138.76 39.3793C138.523 38.7779 138.173 38.3068 137.709 37.9659C137.245 37.625 136.672 37.4545 135.99 37.4545C135.28 37.4545 134.688 37.6345 134.214 37.9943C133.746 38.3542 133.393 38.8371 133.156 39.4432C132.924 40.0492 132.808 40.7216 132.808 41.4602C132.808 42.2178 132.927 42.8878 133.163 43.4702C133.405 44.0478 133.76 44.5024 134.229 44.8338C134.702 45.1605 135.289 45.3239 135.99 45.3239ZM143.831 47V36.0909H145.45V37.7386H145.564C145.763 37.1989 146.123 36.7609 146.643 36.4247C147.164 36.0885 147.751 35.9205 148.405 35.9205C148.528 35.9205 148.682 35.9228 148.866 35.9276C149.051 35.9323 149.191 35.9394 149.286 35.9489V37.6534C149.229 37.6392 149.098 37.6179 148.895 37.5895C148.696 37.5563 148.485 37.5398 148.263 37.5398C147.732 37.5398 147.259 37.651 146.842 37.8736C146.43 38.0914 146.104 38.3944 145.862 38.7827C145.625 39.1662 145.507 39.6042 145.507 40.0966V47H143.831ZM155.514 47.2273C154.463 47.2273 153.556 46.9953 152.794 46.5312C152.036 46.0625 151.452 45.4091 151.04 44.571C150.633 43.7282 150.429 42.7481 150.429 41.6307C150.429 40.5133 150.633 39.5284 151.04 38.6761C151.452 37.8191 152.025 37.1515 152.759 36.6733C153.497 36.1903 154.359 35.9489 155.344 35.9489C155.912 35.9489 156.473 36.0436 157.027 36.233C157.581 36.4223 158.085 36.7301 158.54 37.1562C158.994 37.5777 159.357 38.1364 159.626 38.8324C159.896 39.5284 160.031 40.3854 160.031 41.4034V42.1136H151.622V40.6648H158.327C158.327 40.0492 158.204 39.5 157.957 39.017C157.716 38.5341 157.37 38.1529 156.92 37.8736C156.475 37.5942 155.95 37.4545 155.344 37.4545C154.676 37.4545 154.098 37.6203 153.611 37.9517C153.128 38.2784 152.756 38.7045 152.496 39.2301C152.235 39.7557 152.105 40.3191 152.105 40.9205V41.8864C152.105 42.7102 152.247 43.4086 152.531 43.9815C152.82 44.5497 153.22 44.983 153.732 45.2812C154.243 45.5748 154.837 45.7216 155.514 45.7216C155.955 45.7216 156.352 45.66 156.707 45.5369C157.067 45.4091 157.377 45.2197 157.638 44.9688C157.898 44.7131 158.099 44.3958 158.241 44.017L159.861 44.4716C159.69 45.0208 159.404 45.5038 159.001 45.9205C158.599 46.3324 158.102 46.6544 157.51 46.8864C156.918 47.1136 156.253 47.2273 155.514 47.2273ZM170.763 36.0909C170.678 35.3712 170.332 34.8125 169.726 34.4148C169.12 34.017 168.376 33.8182 167.496 33.8182C166.852 33.8182 166.288 33.9223 165.805 34.1307C165.327 34.339 164.953 34.6255 164.683 34.9901C164.418 35.3546 164.286 35.7689 164.286 36.233C164.286 36.6212 164.378 36.955 164.562 37.2344C164.752 37.509 164.993 37.7386 165.287 37.9233C165.58 38.1032 165.888 38.2524 166.21 38.3707C166.532 38.4844 166.828 38.5767 167.098 38.6477L168.575 39.0455C168.954 39.1449 169.375 39.2822 169.839 39.4574C170.308 39.6326 170.756 39.8717 171.182 40.1747C171.613 40.473 171.968 40.8565 172.247 41.3253C172.527 41.794 172.666 42.3693 172.666 43.0511C172.666 43.8371 172.46 44.5473 172.048 45.1818C171.641 45.8163 171.045 46.3205 170.259 46.6946C169.477 47.0687 168.528 47.2557 167.411 47.2557C166.369 47.2557 165.467 47.0876 164.705 46.7514C163.947 46.4152 163.35 45.9465 162.915 45.3452C162.484 44.7438 162.24 44.0455 162.183 43.25H164.001C164.049 43.7992 164.233 44.2538 164.555 44.6136C164.882 44.9687 165.294 45.2339 165.791 45.4091C166.293 45.5795 166.833 45.6648 167.411 45.6648C168.083 45.6648 168.687 45.5559 169.222 45.3381C169.757 45.1155 170.18 44.8078 170.493 44.4148C170.805 44.017 170.962 43.553 170.962 43.0227C170.962 42.5398 170.827 42.1468 170.557 41.8438C170.287 41.5407 169.932 41.2945 169.491 41.1051C169.051 40.9157 168.575 40.75 168.064 40.608L166.274 40.0966C165.138 39.7699 164.238 39.3035 163.575 38.6974C162.912 38.0914 162.581 37.2983 162.581 36.3182C162.581 35.5038 162.801 34.7936 163.241 34.1875C163.687 33.5767 164.283 33.1032 165.031 32.767C165.784 32.4261 166.625 32.2557 167.553 32.2557C168.49 32.2557 169.323 32.4238 170.053 32.7599C170.782 33.0914 171.359 33.5459 171.786 34.1236C172.216 34.7012 172.444 35.357 172.467 36.0909H170.763ZM180.846 42.4545H182.778L184.397 44.5852L184.824 45.1534L187.238 48.3636H185.306L183.716 46.233L183.318 45.6932L180.846 42.4545ZM187.835 39.7273C187.835 41.2614 187.558 42.5871 187.004 43.7045C186.45 44.822 185.69 45.6837 184.724 46.2898C183.758 46.8958 182.655 47.1989 181.414 47.1989C180.174 47.1989 179.071 46.8958 178.105 46.2898C177.139 45.6837 176.379 44.822 175.825 43.7045C175.271 42.5871 174.994 41.2614 174.994 39.7273C174.994 38.1932 175.271 36.8674 175.825 35.75C176.379 34.6326 177.139 33.7708 178.105 33.1648C179.071 32.5587 180.174 32.2557 181.414 32.2557C182.655 32.2557 183.758 32.5587 184.724 33.1648C185.69 33.7708 186.45 34.6326 187.004 35.75C187.558 36.8674 187.835 38.1932 187.835 39.7273ZM186.13 39.7273C186.13 38.4678 185.92 37.4048 185.498 36.5384C185.082 35.6719 184.516 35.0161 183.801 34.571C183.091 34.1259 182.295 33.9034 181.414 33.9034C180.534 33.9034 179.736 34.1259 179.021 34.571C178.311 35.0161 177.745 35.6719 177.324 36.5384C176.907 37.4048 176.699 38.4678 176.699 39.7273C176.699 40.9867 176.907 42.0497 177.324 42.9162C177.745 43.7827 178.311 44.4384 179.021 44.8835C179.736 45.3286 180.534 45.5511 181.414 45.5511C182.295 45.5511 183.091 45.3286 183.801 44.8835C184.516 44.4384 185.082 43.7827 185.498 42.9162C185.92 42.0497 186.13 40.9867 186.13 39.7273ZM190.797 47V32.4545H192.558V45.4375H199.319V47H190.797Z" fill="#DCDCDC"/>
</svg>
