<svg width="172" height="80" viewBox="0 0 172 80" fill="none" xmlns="http://www.w3.org/2000/svg">
<rect width="80" height="80" rx="16" fill="#1E2235"/>
<path d="M40 43.9182C42.164 43.9182 43.9183 42.1639 43.9183 39.9999C43.9183 37.8358 42.164 36.0815 40 36.0815C37.836 36.0815 36.0817 37.8358 36.0817 39.9999C36.0817 42.1639 37.836 43.9182 40 43.9182Z" fill="#61DAFB"/>
<path fill-rule="evenodd" clip-rule="evenodd" d="M21.5844 37.9355C20.697 38.7365 20.4034 39.4365 20.4034 39.9998C20.4034 40.5632 20.697 41.2632 21.5844 42.0642C22.4715 42.865 23.8355 43.6518 25.6425 44.3417C29.2468 45.7179 34.3225 46.599 40 46.599C45.6775 46.599 50.7532 45.7179 54.3575 44.3417C56.1645 43.6518 57.5285 42.865 58.4156 42.0642C59.303 41.2632 59.5966 40.5632 59.5966 39.9998C59.5966 39.4365 59.303 38.7365 58.4156 37.9355C57.5285 37.1346 56.1645 36.3479 54.3575 35.6579C50.7532 34.2817 45.6775 33.4006 40 33.4006C34.3225 33.4006 29.2468 34.2817 25.6425 35.6579C23.8355 36.3479 22.4715 37.1346 21.5844 37.9355ZM24.6234 32.9887C28.6287 31.4594 34.0656 30.5435 40 30.5435C45.9344 30.5435 51.3713 31.4594 55.3766 32.9887C57.3744 33.7515 59.0895 34.6946 60.3302 35.8146C61.5707 36.9345 62.4537 38.3464 62.4537 39.9998C62.4537 41.6533 61.5707 43.0652 60.3302 44.185C59.0895 45.305 57.3744 46.2481 55.3766 47.0109C51.3713 48.5402 45.9344 49.4562 40 49.4562C34.0656 49.4562 28.6287 48.5402 24.6234 47.0109C22.6256 46.2481 20.9105 45.305 19.6698 44.185C18.4293 43.0652 17.5463 41.6533 17.5463 39.9998C17.5463 38.3464 18.4293 36.9345 19.6698 35.8146C20.9105 34.6946 22.6256 33.7515 24.6234 32.9887Z" fill="#61DAFB"/>
<path fill-rule="evenodd" clip-rule="evenodd" d="M32.5799 23.0193C31.4426 22.6513 30.6895 22.747 30.2016 23.0287C29.7138 23.3104 29.2544 23.9147 29.0043 25.0836C28.7543 26.2524 28.755 27.827 29.061 29.7369C29.6713 33.5464 31.4461 38.3826 34.2849 43.2995C37.1236 48.2163 40.4245 52.1714 43.4185 54.6047C44.9195 55.8247 46.2828 56.6126 47.42 56.9805C48.5573 57.3484 49.3104 57.2527 49.7982 56.971C50.2861 56.6893 50.7455 56.085 50.9956 54.9161C51.2455 53.7473 51.2449 52.1728 50.9389 50.2628C50.3285 46.4534 48.5538 41.6171 45.715 36.7002C42.8763 31.7834 39.5753 27.8283 36.5814 25.395C35.0804 24.175 33.7171 23.3871 32.5799 23.0193ZM38.3834 23.1778C41.7105 25.8818 45.2222 30.1323 48.1894 35.2717C51.1566 40.411 53.0818 45.5774 53.76 49.8108C54.0983 51.9223 54.1391 53.8792 53.7895 55.5137C53.4399 57.148 52.6587 58.6186 51.2268 59.4454C49.7949 60.2721 48.1306 60.2133 46.5405 59.6989C44.9502 59.1844 43.2759 58.1707 41.6165 56.8219C38.2894 54.1179 34.7777 49.8674 31.8105 44.728C28.8433 39.5887 26.9181 34.4223 26.2398 30.1889C25.9016 28.0774 25.8608 26.1205 26.2104 24.486C26.5599 22.8518 27.3411 21.3811 28.7731 20.5544C30.205 19.7276 31.8693 19.7864 33.4593 20.3008C35.0496 20.8153 36.724 21.829 38.3834 23.1778Z" fill="#61DAFB"/>
<path fill-rule="evenodd" clip-rule="evenodd" d="M50.9956 25.0836C50.7455 23.9146 50.2861 23.3103 49.7982 23.0286C49.3104 22.747 48.5573 22.6513 47.42 23.0192C46.2828 23.3871 44.9195 24.175 43.4185 25.3949C40.4245 27.8282 37.1236 31.7833 34.2849 36.7002C31.4461 41.617 29.6713 46.4533 29.061 50.2628C28.755 52.1727 28.7543 53.7473 29.0043 54.916C29.2544 56.085 29.7138 56.6893 30.2016 56.9709C30.6895 57.2526 31.4426 57.3483 32.5799 56.9804C33.7171 56.6125 35.0804 55.8246 36.5814 54.6047C39.5753 52.1714 42.8763 48.2162 45.715 43.2994C48.5538 38.3826 50.3285 33.5463 50.9389 29.7368C51.2449 27.8269 51.2455 26.2523 50.9956 25.0836ZM53.76 30.1888C53.0818 34.4222 51.1566 39.5886 48.1894 44.728C45.2222 49.8673 41.7105 54.1178 38.3834 56.8219C36.724 58.1706 35.0496 59.1843 33.4593 59.6988C31.8693 60.2132 30.205 60.272 28.7731 59.4453C27.3411 58.6186 26.5599 57.1479 26.2104 55.5136C25.8608 53.8792 25.9016 51.9223 26.2398 49.8108C26.9181 45.5774 28.8433 40.411 31.8105 35.2716C34.7777 30.1323 38.2894 25.8818 41.6165 23.1777C43.2759 21.829 44.9502 20.8152 46.5405 20.3008C48.1306 19.7864 49.7949 19.7276 51.2268 20.5543C52.6588 21.381 53.4399 22.8517 53.7895 24.486C54.1391 26.1204 54.0983 28.0773 53.76 30.1888Z" fill="#61DAFB"/>
<path d="M89.7614 47V32.4545H94.6761C95.8125 32.4545 96.7453 32.6487 97.4744 33.0369C98.2036 33.4205 98.7434 33.9484 99.0938 34.6207C99.4441 35.2931 99.6193 36.0578 99.6193 36.9148C99.6193 37.7718 99.4441 38.5317 99.0938 39.1946C98.7434 39.8575 98.206 40.3783 97.4815 40.7571C96.7571 41.1312 95.8314 41.3182 94.7045 41.3182H90.7273V39.7273H94.6477C95.4242 39.7273 96.0492 39.6136 96.5227 39.3864C97.0009 39.1591 97.3466 38.8371 97.5597 38.4205C97.7775 37.9991 97.8864 37.4972 97.8864 36.9148C97.8864 36.3324 97.7775 35.8234 97.5597 35.3878C97.3419 34.9522 96.9938 34.616 96.5156 34.3793C96.0374 34.1378 95.4053 34.017 94.6193 34.017H91.5227V47H89.7614ZM96.608 40.4659L100.188 47H98.142L94.6193 40.4659H96.608ZM106.784 47.2273C105.733 47.2273 104.826 46.9953 104.064 46.5312C103.306 46.0625 102.721 45.4091 102.309 44.571C101.902 43.7282 101.699 42.7481 101.699 41.6307C101.699 40.5133 101.902 39.5284 102.309 38.6761C102.721 37.8191 103.294 37.1515 104.028 36.6733C104.767 36.1903 105.628 35.9489 106.613 35.9489C107.181 35.9489 107.743 36.0436 108.297 36.233C108.85 36.4223 109.355 36.7301 109.809 37.1562C110.264 37.5777 110.626 38.1364 110.896 38.8324C111.166 39.5284 111.301 40.3854 111.301 41.4034V42.1136H102.892V40.6648H109.596C109.596 40.0492 109.473 39.5 109.227 39.017C108.985 38.5341 108.64 38.1529 108.19 37.8736C107.745 37.5942 107.219 37.4545 106.613 37.4545C105.946 37.4545 105.368 37.6203 104.88 37.9517C104.397 38.2784 104.026 38.7045 103.765 39.2301C103.505 39.7557 103.375 40.3191 103.375 40.9205V41.8864C103.375 42.7102 103.517 43.4086 103.801 43.9815C104.09 44.5497 104.49 44.983 105.001 45.2812C105.512 45.5748 106.107 45.7216 106.784 45.7216C107.224 45.7216 107.622 45.66 107.977 45.5369C108.337 45.4091 108.647 45.2197 108.907 44.9688C109.168 44.7131 109.369 44.3958 109.511 44.017L111.13 44.4716C110.96 45.0208 110.673 45.5038 110.271 45.9205C109.868 46.3324 109.371 46.6544 108.779 46.8864C108.188 47.1136 107.522 47.2273 106.784 47.2273ZM117.061 47.2557C116.369 47.2557 115.742 47.1255 115.179 46.8651C114.615 46.5999 114.168 46.2188 113.836 45.7216C113.505 45.2197 113.339 44.6136 113.339 43.9034C113.339 43.2784 113.462 42.7718 113.708 42.3835C113.955 41.9905 114.284 41.6828 114.696 41.4602C115.108 41.2377 115.562 41.072 116.059 40.9631C116.561 40.8494 117.065 40.7595 117.572 40.6932C118.235 40.608 118.772 40.544 119.184 40.5014C119.601 40.4541 119.904 40.3759 120.093 40.267C120.288 40.1581 120.385 39.9687 120.385 39.6989V39.642C120.385 38.9413 120.193 38.3968 119.809 38.0085C119.431 37.6203 118.855 37.4261 118.083 37.4261C117.283 37.4261 116.656 37.6013 116.201 37.9517C115.747 38.3021 115.427 38.6761 115.243 39.0739L113.652 38.5057C113.936 37.8428 114.315 37.3267 114.788 36.9574C115.266 36.5833 115.787 36.3229 116.35 36.1761C116.919 36.0246 117.477 35.9489 118.027 35.9489C118.377 35.9489 118.779 35.9915 119.234 36.0767C119.693 36.1572 120.136 36.3253 120.562 36.581C120.993 36.8366 121.35 37.2225 121.635 37.7386C121.919 38.2547 122.061 38.946 122.061 39.8125V47H120.385V45.5227H120.299C120.186 45.7595 119.996 46.0128 119.731 46.2827C119.466 46.5526 119.113 46.7822 118.673 46.9716C118.233 47.161 117.695 47.2557 117.061 47.2557ZM117.316 45.75C117.979 45.75 118.538 45.6198 118.993 45.3594C119.452 45.099 119.797 44.7628 120.029 44.3509C120.266 43.9389 120.385 43.5057 120.385 43.0511V41.517C120.314 41.6023 120.157 41.6804 119.916 41.7514C119.679 41.8177 119.404 41.8769 119.092 41.929C118.784 41.9763 118.484 42.0189 118.19 42.0568C117.901 42.09 117.667 42.1184 117.487 42.142C117.051 42.1989 116.644 42.2912 116.265 42.419C115.891 42.5421 115.588 42.7292 115.356 42.9801C115.129 43.2263 115.015 43.5625 115.015 43.9886C115.015 44.571 115.231 45.0114 115.662 45.3097C116.097 45.6032 116.649 45.75 117.316 45.75ZM129.552 47.2273C128.529 47.2273 127.648 46.9858 126.91 46.5028C126.171 46.0199 125.603 45.3546 125.205 44.5071C124.808 43.6596 124.609 42.6913 124.609 41.6023C124.609 40.4943 124.812 39.5166 125.219 38.669C125.631 37.8168 126.204 37.1515 126.938 36.6733C127.677 36.1903 128.539 35.9489 129.523 35.9489C130.29 35.9489 130.982 36.0909 131.597 36.375C132.213 36.6591 132.717 37.0568 133.11 37.5682C133.503 38.0795 133.747 38.6761 133.842 39.358H132.165C132.038 38.8608 131.754 38.4205 131.313 38.0369C130.878 37.6487 130.29 37.4545 129.552 37.4545C128.898 37.4545 128.326 37.625 127.833 37.9659C127.345 38.3021 126.964 38.7779 126.69 39.3935C126.42 40.0043 126.285 40.7216 126.285 41.5455C126.285 42.3883 126.417 43.1222 126.683 43.7472C126.952 44.3722 127.331 44.8575 127.819 45.2031C128.311 45.5488 128.889 45.7216 129.552 45.7216C129.987 45.7216 130.383 45.6458 130.738 45.4943C131.093 45.3428 131.394 45.125 131.64 44.8409C131.886 44.5568 132.061 44.2159 132.165 43.8182H133.842C133.747 44.4621 133.513 45.0421 133.138 45.5582C132.769 46.0696 132.279 46.4768 131.668 46.7798C131.062 47.0781 130.357 47.2273 129.552 47.2273ZM141.036 36.0909V37.5114H135.383V36.0909H141.036ZM137.031 33.4773H138.707V43.875C138.707 44.3485 138.775 44.7036 138.913 44.9403C139.055 45.1723 139.235 45.3286 139.452 45.4091C139.675 45.4848 139.909 45.5227 140.156 45.5227C140.34 45.5227 140.492 45.5133 140.61 45.4943C140.728 45.4706 140.823 45.4517 140.894 45.4375L141.235 46.9432C141.121 46.9858 140.963 47.0284 140.759 47.071C140.556 47.1184 140.298 47.142 139.985 47.142C139.512 47.142 139.048 47.0402 138.593 46.8366C138.143 46.633 137.769 46.3229 137.471 45.9062C137.177 45.4896 137.031 44.964 137.031 44.3295V33.4773ZM154.978 32.4545H156.739V42.8523C156.739 43.7803 156.569 44.5687 156.228 45.2173C155.887 45.866 155.406 46.3584 154.786 46.6946C154.166 47.0308 153.434 47.1989 152.592 47.1989C151.796 47.1989 151.088 47.0545 150.468 46.7656C149.848 46.4721 149.36 46.0554 149.005 45.5156C148.65 44.9759 148.472 44.3343 148.472 43.5909H150.205C150.205 44.0028 150.307 44.3627 150.511 44.6705C150.719 44.9735 151.003 45.2102 151.363 45.3807C151.723 45.5511 152.132 45.6364 152.592 45.6364C153.098 45.6364 153.529 45.5298 153.884 45.3168C154.239 45.1037 154.509 44.7912 154.694 44.3793C154.883 43.9626 154.978 43.4536 154.978 42.8523V32.4545ZM168.224 36.0909C168.138 35.3712 167.793 34.8125 167.187 34.4148C166.581 34.017 165.837 33.8182 164.957 33.8182C164.313 33.8182 163.749 33.9223 163.266 34.1307C162.788 34.339 162.414 34.6255 162.144 34.9901C161.879 35.3546 161.746 35.7689 161.746 36.233C161.746 36.6212 161.839 36.955 162.023 37.2344C162.213 37.509 162.454 37.7386 162.748 37.9233C163.041 38.1032 163.349 38.2524 163.671 38.3707C163.993 38.4844 164.289 38.5767 164.559 38.6477L166.036 39.0455C166.415 39.1449 166.836 39.2822 167.3 39.4574C167.769 39.6326 168.217 39.8717 168.643 40.1747C169.074 40.473 169.429 40.8565 169.708 41.3253C169.987 41.794 170.127 42.3693 170.127 43.0511C170.127 43.8371 169.921 44.5473 169.509 45.1818C169.102 45.8163 168.505 46.3205 167.719 46.6946C166.938 47.0687 165.989 47.2557 164.871 47.2557C163.83 47.2557 162.928 47.0876 162.165 46.7514C161.408 46.4152 160.811 45.9465 160.376 45.3452C159.945 44.7438 159.701 44.0455 159.644 43.25H161.462C161.51 43.7992 161.694 44.2538 162.016 44.6136C162.343 44.9687 162.755 45.2339 163.252 45.4091C163.754 45.5795 164.294 45.6648 164.871 45.6648C165.544 45.6648 166.147 45.5559 166.683 45.3381C167.218 45.1155 167.641 44.8078 167.954 44.4148C168.266 44.017 168.423 43.553 168.423 43.0227C168.423 42.5398 168.288 42.1468 168.018 41.8438C167.748 41.5407 167.393 41.2945 166.952 41.1051C166.512 40.9157 166.036 40.75 165.525 40.608L163.735 40.0966C162.599 39.7699 161.699 39.3035 161.036 38.6974C160.373 38.0914 160.042 37.2983 160.042 36.3182C160.042 35.5038 160.262 34.7936 160.702 34.1875C161.147 33.5767 161.744 33.1032 162.492 32.767C163.245 32.4261 164.085 32.2557 165.013 32.2557C165.951 32.2557 166.784 32.4238 167.513 32.7599C168.243 33.0914 168.82 33.5459 169.246 34.1236C169.677 34.7012 169.905 35.357 169.928 36.0909H168.224Z" fill="#DCDCDC"/>
</svg>
