<svg width="148" height="80" viewBox="0 0 148 80" fill="none" xmlns="http://www.w3.org/2000/svg">
<rect width="80" height="80" rx="16" fill="#1E2235"/>
<path d="M48.5732 48.3709C50.2133 48.2011 51.4576 46.7872 51.401 45.0903C51.3445 43.3936 49.9305 42.0361 48.2338 42.0361H48.1207C46.3673 42.0927 45.01 43.5632 45.0666 45.3165C45.1232 46.1649 45.4624 46.9002 45.9714 47.4092C44.0485 51.1988 41.1075 53.9702 36.6961 56.2891C33.6985 57.8728 30.5879 58.4384 27.4773 58.0426C24.9322 57.7031 22.9527 56.5721 21.7082 54.7054C19.8985 51.934 19.7289 48.9363 21.256 45.9387C22.3306 43.7894 24.0271 42.2057 25.1018 41.4139C24.8756 40.6787 24.5362 39.4344 24.3666 38.5295C16.1657 44.4682 17.0141 52.4997 19.5027 56.2891C21.369 59.1172 25.1584 60.8705 29.3436 60.8705C30.4747 60.8705 31.6058 60.7573 32.737 60.4747C39.9765 59.0606 45.4626 54.762 48.5732 48.3709V48.3709ZM58.5274 41.3575C54.2289 36.3236 47.8945 33.5523 40.6551 33.5523H39.7503C39.2412 32.5342 38.1666 31.8554 36.9789 31.8554H36.8657C35.1126 31.912 33.7553 33.3825 33.8117 35.136C33.8683 36.8327 35.2822 38.1901 36.9789 38.1901H37.0919C38.3362 38.1335 39.4108 37.3417 39.8633 36.267H40.8813C45.1798 36.267 49.2518 37.5113 52.9282 39.9434C55.756 41.8099 57.7921 44.242 58.9232 47.183C59.8846 49.5585 59.8281 51.8774 58.81 53.8571C57.2265 56.8547 54.5683 58.495 51.0617 58.495C48.7994 58.495 46.6503 57.8162 45.519 57.3071C44.897 57.8728 43.7657 58.7776 42.9739 59.3434C45.406 60.4745 47.8945 61.0967 50.2699 61.0967C55.6994 61.0967 59.715 58.099 61.2421 55.1014C62.8822 51.8209 62.769 46.1649 58.5274 41.3575V41.3575ZM29.7961 49.3321C29.8527 51.029 31.2666 52.3863 32.9633 52.3863H33.0765C34.8298 52.3299 36.1871 50.8592 36.1305 49.1059C36.074 47.409 34.66 46.0518 32.9633 46.0518H32.8502C32.737 46.0518 32.5673 46.0518 32.4544 46.1082C30.1355 42.2622 29.174 38.0769 29.5134 33.5521C29.7395 30.1585 30.8707 27.2174 32.8502 24.7853C34.4903 22.6926 37.6575 21.6745 39.8068 21.6181C45.8018 21.5049 48.3468 28.9707 48.5166 31.9684C49.2518 32.138 50.4961 32.534 51.3445 32.8169C50.6657 23.6544 45.01 18.9033 39.5806 18.9033C34.4903 18.9033 29.7961 22.5797 27.9296 28.0094C25.328 35.249 27.0247 42.2057 30.1919 47.692C29.9093 48.0879 29.7395 48.7101 29.7961 49.3323V49.3321Z" fill="#8B5CF6"/>
<path d="M89.7614 47V32.4545H94.6761C95.8125 32.4545 96.7453 32.6487 97.4744 33.0369C98.2036 33.4205 98.7434 33.9484 99.0938 34.6207C99.4441 35.2931 99.6193 36.0578 99.6193 36.9148C99.6193 37.7718 99.4441 38.5317 99.0938 39.1946C98.7434 39.8575 98.206 40.3783 97.4815 40.7571C96.7571 41.1312 95.8314 41.3182 94.7045 41.3182H90.7273V39.7273H94.6477C95.4242 39.7273 96.0492 39.6136 96.5227 39.3864C97.0009 39.1591 97.3466 38.8371 97.5597 38.4205C97.7775 37.9991 97.8864 37.4972 97.8864 36.9148C97.8864 36.3324 97.7775 35.8234 97.5597 35.3878C97.3419 34.9522 96.9938 34.616 96.5156 34.3793C96.0374 34.1378 95.4053 34.017 94.6193 34.017H91.5227V47H89.7614ZM96.608 40.4659L100.188 47H98.142L94.6193 40.4659H96.608ZM106.784 47.2273C105.733 47.2273 104.826 46.9953 104.064 46.5312C103.306 46.0625 102.721 45.4091 102.309 44.571C101.902 43.7282 101.699 42.7481 101.699 41.6307C101.699 40.5133 101.902 39.5284 102.309 38.6761C102.721 37.8191 103.294 37.1515 104.028 36.6733C104.767 36.1903 105.628 35.9489 106.613 35.9489C107.181 35.9489 107.743 36.0436 108.297 36.233C108.85 36.4223 109.355 36.7301 109.809 37.1562C110.264 37.5777 110.626 38.1364 110.896 38.8324C111.166 39.5284 111.301 40.3854 111.301 41.4034V42.1136H102.892V40.6648H109.596C109.596 40.0492 109.473 39.5 109.227 39.017C108.985 38.5341 108.64 38.1529 108.19 37.8736C107.745 37.5942 107.219 37.4545 106.613 37.4545C105.946 37.4545 105.368 37.6203 104.88 37.9517C104.397 38.2784 104.026 38.7045 103.765 39.2301C103.505 39.7557 103.375 40.3191 103.375 40.9205V41.8864C103.375 42.7102 103.517 43.4086 103.801 43.9815C104.09 44.5497 104.49 44.983 105.001 45.2812C105.512 45.5748 106.107 45.7216 106.784 45.7216C107.224 45.7216 107.622 45.66 107.977 45.5369C108.337 45.4091 108.647 45.2197 108.907 44.9688C109.168 44.7131 109.369 44.3958 109.511 44.017L111.13 44.4716C110.96 45.0208 110.673 45.5038 110.271 45.9205C109.868 46.3324 109.371 46.6544 108.779 46.8864C108.188 47.1136 107.522 47.2273 106.784 47.2273ZM117.97 47.2273C117.061 47.2273 116.258 46.9976 115.562 46.5384C114.866 46.0743 114.322 45.4209 113.929 44.5781C113.536 43.7306 113.339 42.7292 113.339 41.5739C113.339 40.428 113.536 39.4337 113.929 38.5909C114.322 37.7481 114.868 37.0971 115.569 36.6378C116.27 36.1785 117.08 35.9489 117.998 35.9489C118.708 35.9489 119.27 36.0672 119.681 36.304C120.098 36.536 120.415 36.8011 120.633 37.0994C120.856 37.393 121.029 37.6345 121.152 37.8239H121.294V32.4545H122.97V47H121.35V45.3239H121.152C121.029 45.5227 120.853 45.7737 120.626 46.0767C120.399 46.375 120.074 46.6425 119.653 46.8793C119.232 47.1113 118.671 47.2273 117.97 47.2273ZM118.197 45.7216C118.869 45.7216 119.438 45.5464 119.902 45.196C120.366 44.8409 120.718 44.3509 120.96 43.7259C121.201 43.0961 121.322 42.3693 121.322 41.5455C121.322 40.7311 121.204 40.0185 120.967 39.4077C120.73 38.7921 120.38 38.3139 119.916 37.973C119.452 37.6274 118.879 37.4545 118.197 37.4545C117.487 37.4545 116.895 37.6368 116.422 38.0014C115.953 38.3613 115.6 38.8513 115.363 39.4716C115.131 40.0871 115.015 40.7784 115.015 41.5455C115.015 42.322 115.134 43.0275 115.37 43.6619C115.612 44.2917 115.967 44.7936 116.436 45.1676C116.909 45.5369 117.496 45.7216 118.197 45.7216ZM133.147 42.5398V36.0909H134.824V47H133.147V45.1534H133.034C132.778 45.7074 132.38 46.1785 131.841 46.5668C131.301 46.9503 130.619 47.142 129.795 47.142C129.113 47.142 128.507 46.9929 127.977 46.6946C127.447 46.3916 127.03 45.937 126.727 45.331C126.424 44.7202 126.272 43.9508 126.272 43.0227V36.0909H127.949V42.9091C127.949 43.7045 128.171 44.339 128.616 44.8125C129.066 45.286 129.639 45.5227 130.335 45.5227C130.752 45.5227 131.175 45.4162 131.606 45.2031C132.042 44.9901 132.406 44.6634 132.7 44.223C132.998 43.7827 133.147 43.2216 133.147 42.5398ZM139.143 36.0909L141.757 40.5511L144.371 36.0909H146.303L142.78 41.5455L146.303 47H144.371L141.757 42.767L139.143 47H137.212L140.678 41.5455L137.212 36.0909H139.143Z" fill="#DCDCDC"/>
</svg>
