<svg width="209" height="80" viewBox="0 0 209 80" fill="none" xmlns="http://www.w3.org/2000/svg">
<rect width="80" height="80" rx="16" fill="#1E2235"/>
<path d="M40.0001 26.6704C34.0739 26.6704 30.3703 29.6326 28.8887 35.5565C31.1112 32.5943 33.7038 31.4839 36.6666 32.2241C38.3572 32.6465 39.5654 33.8731 40.9032 35.2303C43.0818 37.4411 45.6033 39.9998 51.1114 39.9998C57.037 39.9998 60.7412 37.0376 62.2223 31.1132C60.0003 34.0754 57.4077 35.1864 54.4444 34.4461C52.7543 34.0237 51.5461 32.7971 50.2083 31.44C48.0297 29.2291 45.5077 26.6704 40.0001 26.6704V26.6704ZM28.8887 39.9998C22.9631 39.9998 19.2589 42.962 17.7778 48.8865C19.9998 45.9243 22.5924 44.8133 25.5557 45.5541C27.2458 45.9771 28.4541 47.2031 29.7918 48.5597C31.9704 50.7705 34.4924 53.3298 40.0001 53.3298C45.9262 53.3298 49.6298 50.3676 51.1114 44.4432C48.8889 47.4054 46.2963 48.5163 43.3335 47.7755C41.6429 47.3537 40.4347 46.1266 39.0969 44.7699C36.9183 42.5591 34.3968 39.9998 28.8887 39.9998V39.9998Z" fill="#06B6D4"/>
<path d="M206.906 36.4629C206.821 35.7432 206.475 35.1845 205.869 34.7868C205.263 34.389 204.52 34.1902 203.639 34.1902C202.995 34.1902 202.432 34.2944 201.949 34.5027C201.471 34.711 201.097 34.9975 200.827 35.3621C200.562 35.7266 200.429 36.1409 200.429 36.605C200.429 36.9932 200.521 37.327 200.706 37.6064C200.895 37.881 201.137 38.1106 201.43 38.2953C201.724 38.4752 202.032 38.6244 202.354 38.7427C202.676 38.8564 202.972 38.9487 203.241 39.0197L204.719 39.4175C205.097 39.5169 205.519 39.6542 205.983 39.8294C206.452 40.0046 206.899 40.2437 207.325 40.5467C207.756 40.845 208.111 41.2285 208.391 41.6973C208.67 42.166 208.81 42.7413 208.81 43.4231C208.81 44.2091 208.604 44.9194 208.192 45.5538C207.785 46.1883 207.188 46.6926 206.402 47.0666C205.621 47.4407 204.671 47.6277 203.554 47.6277C202.512 47.6277 201.61 47.4596 200.848 47.1234C200.09 46.7873 199.494 46.3185 199.058 45.7172C198.627 45.1158 198.383 44.4175 198.327 43.622H200.145C200.192 44.1712 200.377 44.6258 200.699 44.9856C201.026 45.3408 201.437 45.6059 201.935 45.7811C202.437 45.9515 202.976 46.0368 203.554 46.0368C204.226 46.0368 204.83 45.9279 205.365 45.7101C205.9 45.4875 206.324 45.1798 206.636 44.7868C206.949 44.389 207.105 43.925 207.105 43.3947C207.105 42.9118 206.97 42.5188 206.7 42.2158C206.43 41.9127 206.075 41.6665 205.635 41.4771C205.195 41.2877 204.719 41.122 204.207 40.98L202.418 40.4686C201.281 40.1419 200.382 39.6755 199.719 39.0694C199.056 38.4634 198.724 37.6703 198.724 36.6902C198.724 35.8758 198.945 35.1656 199.385 34.5595C199.83 33.9487 200.427 33.4752 201.175 33.139C201.928 32.7981 202.768 32.6277 203.696 32.6277C204.633 32.6277 205.467 32.7958 206.196 33.1319C206.925 33.4634 207.503 33.9179 207.929 34.4956C208.36 35.0732 208.587 35.729 208.611 36.4629H206.906Z" fill="#DCDCDC"/>
<path d="M194.152 36.4629C194.067 35.7432 193.721 35.1845 193.115 34.7868C192.509 34.389 191.766 34.1902 190.885 34.1902C190.241 34.1902 189.678 34.2944 189.195 34.5027C188.717 34.711 188.343 34.9975 188.073 35.3621C187.808 35.7266 187.675 36.1409 187.675 36.605C187.675 36.9932 187.767 37.327 187.952 37.6064C188.141 37.881 188.383 38.1106 188.676 38.2953C188.97 38.4752 189.278 38.6244 189.6 38.7427C189.922 38.8564 190.218 38.9487 190.488 39.0197L191.965 39.4175C192.344 39.5169 192.765 39.6542 193.229 39.8294C193.698 40.0046 194.145 40.2437 194.571 40.5467C195.002 40.845 195.357 41.2285 195.637 41.6973C195.916 42.166 196.056 42.7413 196.056 43.4231C196.056 44.2091 195.85 44.9194 195.438 45.5538C195.031 46.1883 194.434 46.6926 193.648 47.0666C192.867 47.4407 191.917 47.6277 190.8 47.6277C189.758 47.6277 188.856 47.4596 188.094 47.1234C187.336 46.7873 186.74 46.3185 186.304 45.7172C185.873 45.1158 185.63 44.4175 185.573 43.622H187.391C187.438 44.1712 187.623 44.6258 187.945 44.9856C188.272 45.3408 188.684 45.6059 189.181 45.7811C189.683 45.9515 190.222 46.0368 190.8 46.0368C191.472 46.0368 192.076 45.9279 192.611 45.7101C193.146 45.4875 193.57 45.1798 193.882 44.7868C194.195 44.389 194.351 43.925 194.351 43.3947C194.351 42.9118 194.216 42.5188 193.946 42.2158C193.676 41.9127 193.321 41.6665 192.881 41.4771C192.441 41.2877 191.965 41.122 191.453 40.98L189.664 40.4686C188.527 40.1419 187.628 39.6755 186.965 39.0694C186.302 38.4634 185.97 37.6703 185.97 36.6902C185.97 35.8758 186.191 35.1656 186.631 34.5595C187.076 33.9487 187.673 33.4752 188.421 33.139C189.174 32.7981 190.014 32.6277 190.942 32.6277C191.88 32.6277 192.713 32.7958 193.442 33.1319C194.171 33.4634 194.749 33.9179 195.175 34.4956C195.606 35.0732 195.833 35.729 195.857 36.4629H194.152Z" fill="#DCDCDC"/>
<path d="M183.352 37.372H181.59C181.486 36.8654 181.304 36.4203 181.043 36.0368C180.788 35.6533 180.475 35.3313 180.106 35.0709C179.741 34.8057 179.336 34.6069 178.891 34.4743C178.446 34.3417 177.982 34.2754 177.499 34.2754C176.619 34.2754 175.821 34.498 175.106 34.943C174.396 35.3881 173.83 36.0439 173.408 36.9104C172.992 37.7768 172.783 38.8398 172.783 40.0993C172.783 41.3587 172.992 42.4217 173.408 43.2882C173.83 44.1547 174.396 44.8105 175.106 45.2555C175.821 45.7006 176.619 45.9231 177.499 45.9231C177.982 45.9231 178.446 45.8569 178.891 45.7243C179.336 45.5917 179.741 45.3952 180.106 45.1348C180.475 44.8696 180.788 44.5453 181.043 44.1618C181.304 43.7735 181.486 43.3284 181.59 42.8266H183.352C183.219 43.5699 182.978 44.2352 182.627 44.8223C182.277 45.4094 181.841 45.9089 181.32 46.3209C180.8 46.7281 180.215 47.0382 179.566 47.2513C178.922 47.4643 178.233 47.5709 177.499 47.5709C176.259 47.5709 175.156 47.2678 174.19 46.6618C173.224 46.0557 172.464 45.194 171.91 44.0766C171.356 42.9591 171.079 41.6334 171.079 40.0993C171.079 38.5652 171.356 37.2394 171.91 36.122C172.464 35.0046 173.224 34.1428 174.19 33.5368C175.156 32.9307 176.259 32.6277 177.499 32.6277C178.233 32.6277 178.922 32.7342 179.566 32.9473C180.215 33.1604 180.8 33.4729 181.32 33.8848C181.841 34.292 182.277 34.7891 182.627 35.3763C182.978 35.9587 183.219 36.6239 183.352 37.372Z" fill="#DCDCDC"/>
<path d="M157.492 47.5994C156.583 47.5994 155.781 47.3697 155.085 46.9105C154.389 46.4465 153.844 45.793 153.451 44.9502C153.058 44.1027 152.862 43.1013 152.862 41.946C152.862 40.8001 153.058 39.8058 153.451 38.963C153.844 38.1202 154.391 37.4692 155.092 37.0099C155.792 36.5506 156.602 36.321 157.521 36.321C158.231 36.321 158.792 36.4394 159.204 36.6761C159.621 36.9081 159.938 37.1733 160.156 37.4715C160.378 37.7651 160.551 38.0066 160.674 38.196H160.816V32.8267H162.492V47.3721H160.873V45.696H160.674C160.551 45.8948 160.376 46.1458 160.149 46.4488C159.921 46.7471 159.597 47.0146 159.175 47.2514C158.754 47.4834 158.193 47.5994 157.492 47.5994ZM157.72 46.0937C158.392 46.0937 158.96 45.9185 159.424 45.5681C159.888 45.213 160.241 44.723 160.482 44.098C160.724 43.4682 160.845 42.7414 160.845 41.9176C160.845 41.1032 160.726 40.3906 160.489 39.7798C160.253 39.1643 159.902 38.686 159.438 38.3451C158.974 37.9995 158.401 37.8267 157.72 37.8267C157.009 37.8267 156.417 38.009 155.944 38.3735C155.475 38.7334 155.122 39.2234 154.886 39.8437C154.654 40.4592 154.538 41.1505 154.538 41.9176C154.538 42.6941 154.656 43.3996 154.893 44.034C155.134 44.6638 155.489 45.1657 155.958 45.5397C156.432 45.909 157.019 46.0937 157.72 46.0937Z" fill="#DCDCDC"/>
<path d="M143.35 40.8097V47.3722H141.674V36.4631H143.293V38.1676H143.435C143.691 37.6137 144.079 37.1686 144.6 36.8324C145.121 36.4915 145.793 36.321 146.617 36.321C147.356 36.321 148.002 36.4726 148.556 36.7756C149.11 37.0739 149.541 37.5284 149.849 38.1392C150.156 38.7453 150.31 39.5123 150.31 40.4404V47.3722H148.634V40.554C148.634 39.697 148.412 39.0294 147.966 38.5512C147.521 38.0682 146.911 37.8267 146.134 37.8267C145.599 37.8267 145.121 37.9427 144.699 38.1747C144.283 38.4067 143.954 38.7453 143.712 39.1904C143.471 39.6354 143.35 40.1752 143.35 40.8097Z" fill="#DCDCDC"/>
<path d="M136.928 47.3721V36.463H138.604V47.3721H136.928ZM137.78 34.6448C137.453 34.6448 137.171 34.5335 136.935 34.311C136.703 34.0885 136.587 33.8209 136.587 33.5084C136.587 33.1959 136.703 32.9284 136.935 32.7059C137.171 32.4833 137.453 32.3721 137.78 32.3721C138.107 32.3721 138.386 32.4833 138.618 32.7059C138.855 32.9284 138.973 33.1959 138.973 33.5084C138.973 33.8209 138.855 34.0885 138.618 34.311C138.386 34.5335 138.107 34.6448 137.78 34.6448Z" fill="#DCDCDC"/>
<path d="M123.149 47.372L119.825 36.4629H121.587L123.945 44.8152H124.058L126.388 36.4629H128.178L130.479 44.7868H130.592L132.95 36.4629H134.712L131.388 47.372H129.74L127.354 38.9913H127.183L124.797 47.372H123.149Z" fill="#DCDCDC"/>
<path d="M117.608 32.8267V47.3721H115.932V32.8267H117.608Z" fill="#DCDCDC"/>
<path d="M111.185 47.3721V36.463H112.862V47.3721H111.185ZM112.038 34.6448C111.711 34.6448 111.429 34.5335 111.192 34.311C110.96 34.0885 110.844 33.8209 110.844 33.5084C110.844 33.1959 110.96 32.9284 111.192 32.7059C111.429 32.4833 111.711 32.3721 112.038 32.3721C112.364 32.3721 112.644 32.4833 112.876 32.7059C113.112 32.9284 113.231 33.1959 113.231 33.5084C113.231 33.8209 113.112 34.0885 112.876 34.311C112.644 34.5335 112.364 34.6448 112.038 34.6448Z" fill="#DCDCDC"/>
<path d="M103.126 47.6279C102.435 47.6279 101.807 47.4977 101.244 47.2372C100.681 46.9721 100.233 46.5909 99.9017 46.0938C99.5703 45.5919 99.4045 44.9858 99.4045 44.2756C99.4045 43.6506 99.5276 43.144 99.7739 42.7557C100.02 42.3627 100.349 42.0549 100.761 41.8324C101.173 41.6099 101.628 41.4442 102.125 41.3352C102.627 41.2216 103.131 41.1317 103.637 41.0654C104.3 40.9801 104.838 40.9162 105.25 40.8736C105.666 40.8263 105.969 40.7481 106.159 40.6392C106.353 40.5303 106.45 40.3409 106.45 40.071V40.0142C106.45 39.3135 106.258 38.769 105.875 38.3807C105.496 37.9924 104.921 37.7983 104.149 37.7983C103.349 37.7983 102.721 37.9735 102.267 38.3239C101.812 38.6743 101.493 39.0483 101.308 39.446L99.717 38.8779C100.001 38.215 100.38 37.6989 100.853 37.3296C101.332 36.9555 101.852 36.6951 102.416 36.5483C102.984 36.3968 103.543 36.321 104.092 36.321C104.442 36.321 104.845 36.3637 105.299 36.4489C105.759 36.5294 106.201 36.6975 106.628 36.9531C107.058 37.2088 107.416 37.5947 107.7 38.1108C107.984 38.6269 108.126 39.3182 108.126 40.1847V47.3722H106.45V45.8949H106.365C106.251 46.1317 106.062 46.385 105.797 46.6549C105.531 46.9247 105.179 47.1544 104.738 47.3438C104.298 47.5332 103.761 47.6279 103.126 47.6279ZM103.382 46.1222C104.045 46.1222 104.603 45.992 105.058 45.7316C105.517 45.4711 105.863 45.135 106.095 44.723C106.332 44.3111 106.45 43.8779 106.45 43.4233V41.8892C106.379 41.9745 106.223 42.0526 105.981 42.1236C105.745 42.1899 105.47 42.2491 105.157 42.3012C104.85 42.3485 104.549 42.3911 104.255 42.429C103.967 42.4621 103.732 42.4906 103.552 42.5142C103.117 42.571 102.709 42.6634 102.331 42.7912C101.957 42.9143 101.654 43.1013 101.422 43.3523C101.194 43.5985 101.081 43.9347 101.081 44.3608C101.081 44.9432 101.296 45.3835 101.727 45.6818C102.163 45.9754 102.714 46.1222 103.382 46.1222Z" fill="#DCDCDC"/>
<path d="M88 34.3892V32.8267H98.9091V34.3892H94.3352V47.3721H92.5739V34.3892H88Z" fill="#DCDCDC"/>
</svg>
