<svg width="188" height="80" viewBox="0 0 188 80" fill="none" xmlns="http://www.w3.org/2000/svg">
<rect width="80" height="80" rx="16" fill="#1E2235"/>
<path d="M17.7776 17.7776H62.222V62.222H17.7776V17.7776Z" fill="#017ACB"/>
<path d="M39.1179 34.2359H41.2499V37.9165H35.486V54.2915L35.3332 54.3331C35.1249 54.3887 32.3818 54.3887 31.7915 54.3262L31.3193 54.2845V37.9165H25.5554V34.2359L27.3818 34.2151C28.3818 34.2012 30.9513 34.2012 33.0902 34.2151C35.229 34.229 37.9374 34.2359 39.1179 34.2359V34.2359ZM55.3888 52.5554C54.5416 53.4512 53.6319 53.9512 52.118 54.3609C51.4582 54.5415 51.3471 54.5484 49.861 54.5415C48.3749 54.5345 48.2568 54.5345 47.5346 54.347C45.6666 53.8679 44.1596 52.9304 43.1318 51.604C42.8402 51.229 42.361 50.4512 42.361 50.354C42.361 50.3262 42.4304 50.2637 42.5207 50.222C42.611 50.1804 42.7985 50.0623 42.9513 49.972C43.1041 49.8818 43.3818 49.7151 43.5693 49.6179C43.7568 49.5206 44.2985 49.2012 44.7707 48.9165C45.243 48.6318 45.6735 48.4026 45.7221 48.4026C45.7707 48.4026 45.861 48.4998 45.9305 48.6179C46.3471 49.3193 47.3193 50.2151 48.0068 50.5206C48.4305 50.7012 49.368 50.9026 49.8194 50.9026C50.236 50.9026 50.9999 50.722 51.4096 50.5345C51.8471 50.3331 52.0694 50.1318 52.3332 49.729C52.5138 49.4443 52.5346 49.3679 52.5277 48.8262C52.5277 48.3262 52.4999 48.1873 52.361 47.9581C51.9721 47.3193 51.4444 46.9859 49.3055 46.0415C47.0971 45.0623 46.1041 44.479 45.2985 43.6943C44.7013 43.1109 44.5832 42.9512 44.2082 42.222C43.7221 41.2845 43.6596 40.979 43.6527 39.5831C43.6457 38.604 43.6666 38.2845 43.7707 37.9512C43.9166 37.4512 44.3888 36.4859 44.6041 36.2429C45.0485 35.722 45.2082 35.5623 45.5207 35.3054C46.4652 34.5276 47.9374 34.0137 49.3471 33.9651C49.5069 33.9651 50.0346 33.9929 50.5277 34.0276C51.9444 34.1456 52.9096 34.4929 53.8402 35.2359C54.5416 35.7915 55.6041 37.097 55.4999 37.2706C55.4305 37.3748 52.6596 39.222 52.4791 39.2776C52.368 39.3123 52.2916 39.2706 52.1388 39.0901C51.1944 37.9581 50.8124 37.7151 49.8957 37.6595C49.243 37.6179 48.8957 37.6943 48.4582 37.9859C47.9999 38.2915 47.7777 38.7568 47.7777 39.4026C47.7846 40.347 48.1457 40.7915 49.4791 41.4512C50.3402 41.8748 51.0763 42.222 51.1319 42.222C51.2152 42.222 52.9999 43.1109 53.4652 43.3887C55.6319 44.6595 56.5138 45.9651 56.743 48.2151C56.9096 49.9095 56.4305 51.4581 55.3888 52.5554V52.5554Z" fill="#1E2235"/>
<path d="M88.9659 34.017V32.4545H99.875V34.017H95.3011V47H93.5398V34.017H88.9659ZM102.196 51.0909C101.912 51.0909 101.658 51.0672 101.436 51.0199C101.213 50.9773 101.059 50.9347 100.974 50.892L101.4 49.4148C101.807 49.5189 102.167 49.5568 102.48 49.5284C102.792 49.5 103.069 49.3603 103.311 49.1094C103.557 48.8632 103.782 48.4631 103.985 47.9091L104.298 47.0568L100.264 36.0909H102.082L105.093 44.7841H105.207L108.218 36.0909H110.037L105.406 48.5909C105.198 49.1544 104.94 49.6207 104.632 49.9901C104.324 50.3641 103.967 50.6411 103.559 50.821C103.157 51.0009 102.702 51.0909 102.196 51.0909ZM116.432 47.2273C115.381 47.2273 114.474 46.9953 113.712 46.5312C112.954 46.0625 112.37 45.4091 111.958 44.571C111.551 43.7282 111.347 42.7481 111.347 41.6307C111.347 40.5133 111.551 39.5284 111.958 38.6761C112.37 37.8191 112.943 37.1515 113.676 36.6733C114.415 36.1903 115.277 35.9489 116.262 35.9489C116.83 35.9489 117.391 36.0436 117.945 36.233C118.499 36.4223 119.003 36.7301 119.458 37.1562C119.912 37.5777 120.275 38.1364 120.544 38.8324C120.814 39.5284 120.949 40.3854 120.949 41.4034V42.1136H112.54V40.6648H119.245C119.245 40.0492 119.122 39.5 118.875 39.017C118.634 38.5341 118.288 38.1529 117.838 37.8736C117.393 37.5942 116.868 37.4545 116.262 37.4545C115.594 37.4545 115.016 37.6203 114.529 37.9517C114.046 38.2784 113.674 38.7045 113.414 39.2301C113.153 39.7557 113.023 40.3191 113.023 40.9205V41.8864C113.023 42.7102 113.165 43.4086 113.449 43.9815C113.738 44.5497 114.138 44.983 114.65 45.2812C115.161 45.5748 115.755 45.7216 116.432 45.7216C116.873 45.7216 117.27 45.66 117.625 45.5369C117.985 45.4091 118.295 45.2197 118.556 44.9688C118.816 44.7131 119.017 44.3958 119.159 44.017L120.779 44.4716C120.608 45.0208 120.322 45.5038 119.919 45.9205C119.517 46.3324 119.02 46.6544 118.428 46.8864C117.836 47.1136 117.171 47.2273 116.432 47.2273ZM123.499 51.0909V36.0909H125.118V37.8239H125.317C125.44 37.6345 125.611 37.393 125.828 37.0994C126.051 36.8011 126.368 36.536 126.78 36.304C127.197 36.0672 127.76 35.9489 128.471 35.9489C129.389 35.9489 130.199 36.1785 130.9 36.6378C131.6 37.0971 132.147 37.7481 132.54 38.5909C132.933 39.4337 133.13 40.428 133.13 41.5739C133.13 42.7292 132.933 43.7306 132.54 44.5781C132.147 45.4209 131.603 46.0743 130.907 46.5384C130.211 46.9976 129.408 47.2273 128.499 47.2273C127.798 47.2273 127.237 47.1113 126.816 46.8793C126.394 46.6425 126.07 46.375 125.843 46.0767C125.615 45.7737 125.44 45.5227 125.317 45.3239H125.175V51.0909H123.499ZM125.147 41.5455C125.147 42.3693 125.267 43.0961 125.509 43.7259C125.75 44.3509 126.103 44.8409 126.567 45.196C127.031 45.5464 127.599 45.7216 128.272 45.7216C128.972 45.7216 129.557 45.5369 130.026 45.1676C130.499 44.7936 130.855 44.2917 131.091 43.6619C131.333 43.0275 131.453 42.322 131.453 41.5455C131.453 40.7784 131.335 40.0871 131.098 39.4716C130.866 38.8513 130.514 38.3613 130.04 38.0014C129.571 37.6368 128.982 37.4545 128.272 37.4545C127.59 37.4545 127.017 37.6274 126.553 37.973C126.089 38.3139 125.739 38.7921 125.502 39.4077C125.265 40.0185 125.147 40.7311 125.147 41.5455ZM143.414 38.5341L141.908 38.9602C141.813 38.7093 141.674 38.4654 141.489 38.2287C141.309 37.9872 141.063 37.7884 140.75 37.6321C140.438 37.4759 140.038 37.3977 139.55 37.3977C138.882 37.3977 138.326 37.5516 137.881 37.8594C137.441 38.1624 137.221 38.5483 137.221 39.017C137.221 39.4337 137.372 39.7628 137.675 40.0043C137.978 40.2457 138.452 40.447 139.096 40.608L140.715 41.0057C141.69 41.2424 142.417 41.6046 142.895 42.0923C143.373 42.5753 143.613 43.1979 143.613 43.9602C143.613 44.5852 143.433 45.1439 143.073 45.6364C142.718 46.1288 142.221 46.517 141.581 46.8011C140.942 47.0852 140.199 47.2273 139.351 47.2273C138.239 47.2273 137.318 46.9858 136.588 46.5028C135.859 46.0199 135.398 45.3144 135.203 44.3864L136.794 43.9886C136.946 44.5758 137.232 45.0161 137.654 45.3097C138.08 45.6032 138.636 45.75 139.323 45.75C140.104 45.75 140.724 45.5843 141.184 45.2528C141.648 44.9167 141.88 44.5142 141.88 44.0455C141.88 43.6667 141.747 43.3494 141.482 43.0938C141.217 42.8333 140.81 42.6392 140.26 42.5114L138.442 42.0852C137.443 41.8485 136.709 41.4815 136.24 40.9844C135.776 40.4825 135.544 39.8551 135.544 39.1023C135.544 38.4867 135.717 37.9422 136.063 37.4688C136.413 36.9953 136.889 36.6236 137.49 36.3537C138.096 36.0838 138.783 35.9489 139.55 35.9489C140.63 35.9489 141.477 36.1856 142.093 36.6591C142.713 37.1326 143.153 37.7576 143.414 38.5341ZM150.567 47.2273C149.545 47.2273 148.664 46.9858 147.925 46.5028C147.187 46.0199 146.619 45.3546 146.221 44.5071C145.823 43.6596 145.624 42.6913 145.624 41.6023C145.624 40.4943 145.828 39.5166 146.235 38.669C146.647 37.8168 147.22 37.1515 147.954 36.6733C148.692 36.1903 149.554 35.9489 150.539 35.9489C151.306 35.9489 151.997 36.0909 152.613 36.375C153.228 36.6591 153.733 37.0568 154.126 37.5682C154.519 38.0795 154.763 38.6761 154.857 39.358H153.181C153.053 38.8608 152.769 38.4205 152.329 38.0369C151.893 37.6487 151.306 37.4545 150.567 37.4545C149.914 37.4545 149.341 37.625 148.849 37.9659C148.361 38.3021 147.98 38.7779 147.705 39.3935C147.435 40.0043 147.3 40.7216 147.3 41.5455C147.3 42.3883 147.433 43.1222 147.698 43.7472C147.968 44.3722 148.347 44.8575 148.835 45.2031C149.327 45.5488 149.905 45.7216 150.567 45.7216C151.003 45.7216 151.398 45.6458 151.754 45.4943C152.109 45.3428 152.409 45.125 152.656 44.8409C152.902 44.5568 153.077 44.2159 153.181 43.8182H154.857C154.763 44.4621 154.528 45.0421 154.154 45.5582C153.785 46.0696 153.295 46.4768 152.684 46.7798C152.078 47.0781 151.372 47.2273 150.567 47.2273ZM157.308 47V36.0909H158.927V37.7386H159.04C159.239 37.1989 159.599 36.7609 160.12 36.4247C160.641 36.0885 161.228 35.9205 161.881 35.9205C162.004 35.9205 162.158 35.9228 162.343 35.9276C162.528 35.9323 162.667 35.9394 162.762 35.9489V37.6534C162.705 37.6392 162.575 37.6179 162.371 37.5895C162.173 37.5563 161.962 37.5398 161.739 37.5398C161.209 37.5398 160.736 37.651 160.319 37.8736C159.907 38.0914 159.58 38.3944 159.339 38.7827C159.102 39.1662 158.984 39.6042 158.984 40.0966V47H157.308ZM164.749 47V36.0909H166.425V47H164.749ZM165.601 34.2727C165.275 34.2727 164.993 34.1615 164.756 33.9389C164.524 33.7164 164.408 33.4489 164.408 33.1364C164.408 32.8239 164.524 32.5563 164.756 32.3338C164.993 32.1113 165.275 32 165.601 32C165.928 32 166.207 32.1113 166.439 32.3338C166.676 32.5563 166.794 32.8239 166.794 33.1364C166.794 33.4489 166.676 33.7164 166.439 33.9389C166.207 34.1615 165.928 34.2727 165.601 34.2727ZM169.495 51.0909V36.0909H171.114V37.8239H171.313C171.436 37.6345 171.607 37.393 171.825 37.0994C172.047 36.8011 172.364 36.536 172.776 36.304C173.193 36.0672 173.756 35.9489 174.467 35.9489C175.385 35.9489 176.195 36.1785 176.896 36.6378C177.596 37.0971 178.143 37.7481 178.536 38.5909C178.929 39.4337 179.126 40.428 179.126 41.5739C179.126 42.7292 178.929 43.7306 178.536 44.5781C178.143 45.4209 177.599 46.0743 176.903 46.5384C176.207 46.9976 175.404 47.2273 174.495 47.2273C173.794 47.2273 173.233 47.1113 172.812 46.8793C172.39 46.6425 172.066 46.375 171.839 46.0767C171.612 45.7737 171.436 45.5227 171.313 45.3239H171.171V51.0909H169.495ZM171.143 41.5455C171.143 42.3693 171.263 43.0961 171.505 43.7259C171.746 44.3509 172.099 44.8409 172.563 45.196C173.027 45.5464 173.595 45.7216 174.268 45.7216C174.969 45.7216 175.553 45.5369 176.022 45.1676C176.496 44.7936 176.851 44.2917 177.087 43.6619C177.329 43.0275 177.45 42.322 177.45 41.5455C177.45 40.7784 177.331 40.0871 177.094 39.4716C176.862 38.8513 176.51 38.3613 176.036 38.0014C175.567 37.6368 174.978 37.4545 174.268 37.4545C173.586 37.4545 173.013 37.6274 172.549 37.973C172.085 38.3139 171.735 38.7921 171.498 39.4077C171.261 40.0185 171.143 40.7311 171.143 41.5455ZM186.427 36.0909V37.5114H180.773V36.0909H186.427ZM182.421 33.4773H184.097V43.875C184.097 44.3485 184.166 44.7036 184.303 44.9403C184.445 45.1723 184.625 45.3286 184.843 45.4091C185.066 45.4848 185.3 45.5227 185.546 45.5227C185.731 45.5227 185.882 45.5133 186.001 45.4943C186.119 45.4706 186.214 45.4517 186.285 45.4375L186.626 46.9432C186.512 46.9858 186.353 47.0284 186.15 47.071C185.946 47.1184 185.688 47.142 185.376 47.142C184.902 47.142 184.438 47.0402 183.984 46.8366C183.534 46.633 183.16 46.3229 182.862 45.9062C182.568 45.4896 182.421 44.964 182.421 44.3295V33.4773Z" fill="#DCDCDC"/>
</svg>
