<svg width="126" height="80" viewBox="0 0 126 80" fill="none" xmlns="http://www.w3.org/2000/svg">
<rect width="80" height="80" rx="16" fill="#1E2235"/>
<path d="M61.6718 24.3558L41.1755 61.6419C40.7523 62.4117 39.6651 62.4162 39.2356 61.6502L18.3329 24.3593C17.8649 23.5245 18.5666 22.5133 19.4965 22.6825L40.0148 26.4134C40.1457 26.4372 40.2798 26.437 40.4106 26.4128L60.4997 22.6877C61.4266 22.5159 62.1315 23.5193 61.6718 24.3558V24.3558Z" fill="url(#paint0_linear_380_2219)"/>
<path d="M49.7887 17.7885L34.6209 20.8122C34.4997 20.8363 34.3899 20.9008 34.3086 20.9954C34.2274 21.09 34.1793 21.2094 34.172 21.3348L33.239 37.366C33.2339 37.454 33.249 37.5419 33.2831 37.6228C33.3172 37.7038 33.3694 37.7756 33.4355 37.8324C33.5016 37.8893 33.5799 37.9297 33.664 37.9504C33.7482 37.9711 33.8359 37.9716 33.9203 37.9518L38.1432 36.9603C38.5383 36.8675 38.8954 37.2216 38.8141 37.6258L37.5595 43.8761C37.4751 44.2967 37.8632 44.6564 38.267 44.5315L40.8754 43.7254C41.2797 43.6006 41.6683 43.9612 41.5827 44.3822L39.5889 54.1999C39.4641 54.8141 40.2671 55.1489 40.6018 54.6225L40.8256 54.2709L53.1852 29.1774C53.3923 28.7572 53.0352 28.2781 52.5818 28.3673L48.2348 29.2207C47.8264 29.3008 47.4789 28.9138 47.5941 28.5074L50.4312 18.5017C50.5466 18.0942 50.1977 17.707 49.7888 17.7885H49.7887Z" fill="url(#paint1_linear_380_2219)"/>
<path d="M90.358 32.4545L94.6761 44.6989H94.8466L99.1648 32.4545H101.011L95.6705 47H93.8523L88.5114 32.4545H90.358ZM103.05 47V36.0909H104.726V47H103.05ZM103.902 34.2727C103.575 34.2727 103.294 34.1615 103.057 33.9389C102.825 33.7164 102.709 33.4489 102.709 33.1364C102.709 32.8239 102.825 32.5563 103.057 32.3338C103.294 32.1113 103.575 32 103.902 32C104.229 32 104.508 32.1113 104.74 32.3338C104.977 32.5563 105.095 32.8239 105.095 33.1364C105.095 33.4489 104.977 33.7164 104.74 33.9389C104.508 34.1615 104.229 34.2727 103.902 34.2727ZM112.54 36.0909V37.5114H106.887V36.0909H112.54ZM108.534 33.4773H110.211V43.875C110.211 44.3485 110.279 44.7036 110.417 44.9403C110.559 45.1723 110.739 45.3286 110.956 45.4091C111.179 45.4848 111.413 45.5227 111.659 45.5227C111.844 45.5227 111.996 45.5133 112.114 45.4943C112.232 45.4706 112.327 45.4517 112.398 45.4375L112.739 46.9432C112.625 46.9858 112.467 47.0284 112.263 47.071C112.06 47.1184 111.801 47.142 111.489 47.142C111.016 47.142 110.551 47.0402 110.097 46.8366C109.647 46.633 109.273 46.3229 108.975 45.9062C108.681 45.4896 108.534 44.964 108.534 44.3295V33.4773ZM119.518 47.2273C118.467 47.2273 117.56 46.9953 116.798 46.5312C116.04 46.0625 115.456 45.4091 115.044 44.571C114.636 43.7282 114.433 42.7481 114.433 41.6307C114.433 40.5133 114.636 39.5284 115.044 38.6761C115.456 37.8191 116.029 37.1515 116.762 36.6733C117.501 36.1903 118.363 35.9489 119.348 35.9489C119.916 35.9489 120.477 36.0436 121.031 36.233C121.585 36.4223 122.089 36.7301 122.544 37.1562C122.998 37.5777 123.36 38.1364 123.63 38.8324C123.9 39.5284 124.035 40.3854 124.035 41.4034V42.1136H115.626V40.6648H122.331C122.331 40.0492 122.208 39.5 121.961 39.017C121.72 38.5341 121.374 38.1529 120.924 37.8736C120.479 37.5942 119.954 37.4545 119.348 37.4545C118.68 37.4545 118.102 37.6203 117.615 37.9517C117.132 38.2784 116.76 38.7045 116.5 39.2301C116.239 39.7557 116.109 40.3191 116.109 40.9205V41.8864C116.109 42.7102 116.251 43.4086 116.535 43.9815C116.824 44.5497 117.224 44.983 117.735 45.2812C118.247 45.5748 118.841 45.7216 119.518 45.7216C119.958 45.7216 120.356 45.66 120.711 45.5369C121.071 45.4091 121.381 45.2197 121.642 44.9688C121.902 44.7131 122.103 44.3958 122.245 44.017L123.865 44.4716C123.694 45.0208 123.408 45.5038 123.005 45.9205C122.603 46.3324 122.106 46.6544 121.514 46.8864C120.922 47.1136 120.257 47.2273 119.518 47.2273Z" fill="#DCDCDC"/>
<defs>
<linearGradient id="paint0_linear_380_2219" x1="17.8226" y1="25.6908" x2="40.4227" y2="55.8609" gradientUnits="userSpaceOnUse">
<stop stop-color="#41D1FF"/>
<stop offset="1" stop-color="#BD34FE"/>
</linearGradient>
<linearGradient id="paint1_linear_380_2219" x1="41.9165" y1="18.6095" x2="46.6195" y2="50.3216" gradientUnits="userSpaceOnUse">
<stop stop-color="#FFEA83"/>
<stop offset="0.083" stop-color="#FFDD35"/>
<stop offset="1" stop-color="#FFA800"/>
</linearGradient>
</defs>
</svg>
