<svg width="24" height="24" viewBox="0 0 24 24" fill="none" xmlns="http://www.w3.org/2000/svg">
<path d="M17.2774 18.3051C15.5402 20.0423 11.0914 18.41 7.34069 14.6593C3.58998 10.9086 1.95768 6.4598 3.69485 4.72262L4.83864 3.57883C5.62826 2.78921 6.92937 2.81008 7.74474 3.62545L9.51638 5.39708C10.3318 6.21246 10.3526 7.51356 9.563 8.30319L9.31732 8.54886C8.891 8.97519 8.84929 9.66295 9.24543 10.143C9.62753 10.606 10.0395 11.0672 10.4861 11.5139C10.9328 11.9605 11.394 12.3725 11.857 12.7546C12.3371 13.1507 13.0248 13.109 13.4511 12.6827L13.6968 12.437C14.4864 11.6474 15.7875 11.6682 16.6029 12.4836L18.3745 14.2553C19.1899 15.0706 19.2108 16.3717 18.4212 17.1614L17.2774 18.3051Z" stroke="#F39C12" stroke-width="1.5"/>
</svg>
