<svg width="24" height="24" viewBox="0 0 24 24" fill="none" xmlns="http://www.w3.org/2000/svg">
<path d="M20 6.42871C21.1046 6.42871 22 7.32414 22 8.42871V10.083C22 10.9662 21.4202 11.7452 20.5742 11.999L13.1494 14.2266C12.3997 14.4515 11.6003 14.4515 10.8506 14.2266L3.42578 11.999C2.57981 11.7452 2 10.9662 2 10.083V8.42871C2 7.32414 2.89543 6.42871 4 6.42871H20ZM12 9.10742C11.5858 9.10742 11.25 9.44321 11.25 9.85742V11.5713C11.25 11.9855 11.5858 12.3213 12 12.3213C12.4142 12.3213 12.75 11.9855 12.75 11.5713V9.85742C12.75 9.44321 12.4142 9.10742 12 9.10742Z" fill="#EF5350"/>
<path d="M21.9165 16.9996C21.9164 19.6229 19.7898 21.7496 17.1665 21.7496H6.8335C4.21021 21.7496 2.0836 19.6229 2.0835 16.9996V13.0084C2.3606 13.19 2.66533 13.3374 2.99463 13.4362L10.4194 15.6637C11.4503 15.973 12.5497 15.973 13.5806 15.6637L21.0054 13.4362C21.3347 13.3374 21.6394 13.19 21.9165 13.0084V16.9996ZM21.853 10.8317C21.6304 11.3825 21.1691 11.8203 20.5747 11.9987L13.1489 14.2262C12.3994 14.451 11.6006 14.451 10.8511 14.2262L3.42529 11.9987C2.83074 11.8203 2.36856 11.3827 2.146 10.8317L12.0005 12.4996L21.853 10.8317Z" fill="#EF5350"/>
<path d="M15.3333 6.42855V5C15.3333 3.89543 14.4379 3 13.3333 3H10.6666C9.56206 3 8.66663 3.89543 8.66663 5L8.66663 6.42855" stroke="#EF5350" stroke-width="1.5"/>
</svg>
