<svg width="24" height="24" viewBox="0 0 24 24" fill="none" xmlns="http://www.w3.org/2000/svg">
<path d="M2 18C2 17.4477 2.44772 17 3 17H21C21.5523 17 22 17.4477 22 18V19C22 19.5523 21.5523 20 21 20H3C2.44772 20 2 19.5523 2 19V18Z" fill="#EF5350"/>
<path d="M21 17V17.0713C21 17.5841 20.5523 18 20 18H4C3.44772 18 3 17.5841 3 17.0713V17H21ZM7.96973 5C8.43964 5 8.8306 5.37564 9.20312 5.66211C9.41943 5.82843 9.69722 5.92871 10 5.92871H14C14.3028 5.92871 14.5806 5.82843 14.7969 5.66211C15.1694 5.37564 15.5604 5 16.0303 5H20C20.5523 5 21 5.41588 21 5.92871V15.5H3V5.92871C3 5.41588 3.44772 5 4 5H7.96973Z" fill="#EF5350"/>
</svg>
