<svg width="24" height="24" viewBox="0 0 24 24" fill="none" xmlns="http://www.w3.org/2000/svg">
<path d="M14.6198 1.93606C12.9917 1.02131 11.0083 1.02131 9.38018 1.93606L3.34356 5.32762C1.88548 6.14682 1.88548 8.25428 3.34356 9.07348L9.38018 12.465C11.0083 13.3798 12.9917 13.3798 14.6198 12.465L20.6564 9.07348C22.1145 8.25428 22.1145 6.14682 20.6564 5.32762L14.6198 1.93606Z" fill="#EF5350"/>
<path d="M2.97517 15.3369C1.89805 16.2769 2.02084 18.0802 3.34356 18.8234L9.38018 22.2149C11.0083 23.1297 12.9917 23.1297 14.6198 22.2149L20.6564 18.8234C21.9792 18.0802 22.102 16.2769 21.0248 15.3369L15.3545 18.5227C13.2701 19.6938 10.7299 19.6938 8.64545 18.5227L2.97517 15.3369Z" fill="#EF5350"/>
<path d="M2.81218 10.4956C1.91468 11.4676 2.0918 13.1203 3.34356 13.8236L9.38018 17.2152C11.0083 18.1299 12.9917 18.1299 14.6198 17.2152L20.6564 13.8236C21.9082 13.1203 22.0853 11.4676 21.1878 10.4956L15.3545 13.7729C13.2701 14.944 10.7299 14.944 8.64545 13.7729L2.81218 10.4956Z" fill="#EF5350"/>
</svg>
