<svg width="24" height="24" viewBox="0 0 24 24" fill="none" xmlns="http://www.w3.org/2000/svg">
<path d="M16.75 1C19.9256 1 22.5 3.57436 22.5 6.75V16.75C22.5 19.9256 19.9256 22.5 16.75 22.5H6.75C3.57436 22.5 1 19.9256 1 16.75V6.75C1 3.57436 3.57436 1 6.75 1H16.75ZM7.5625 12.6904C7.27031 12.9831 7.09856 13.3749 7.08105 13.7881L7.00098 15.6875C6.98126 16.1562 7.35547 16.5469 7.82422 16.5469H9.69434C10.1391 16.5469 10.5653 16.3676 10.876 16.0488L14.9707 11.8467L11.6855 8.56152L7.5625 12.6904ZM14.9678 6.8291C14.5384 6.40009 13.8423 6.40117 13.4131 6.83105L12.2676 7.97754L15.5469 11.2559L16.6875 10.0859C17.1079 9.65449 17.1034 8.96472 16.6777 8.53906L14.9678 6.8291Z" fill="#EF5350"/>
</svg>
