<svg width="24" height="24" viewBox="0 0 24 24" fill="none" xmlns="http://www.w3.org/2000/svg">
<path d="M9.00002 19.4999C7.71752 20.9287 3.27003 21.1117 3.05253 20.9527L3.04953 20.9549L3.04803 20.9512L3.04428 20.9497L3.04728 20.9474C2.88753 20.7299 3.07503 16.2862 4.50003 14.9999L9.00002 19.4999ZM22.23 5.93091C21.7388 7.94841 20.9693 10.1609 18 13.4999L17.4083 17.0617C17.3057 17.6784 17.0131 18.2476 16.5713 18.6899L12.924 22.3409C12.8485 22.4173 12.752 22.4694 12.6467 22.4906C12.5415 22.5118 12.4323 22.5012 12.3331 22.4601C12.2339 22.4189 12.1493 22.3491 12.09 22.2597C12.0306 22.1702 11.9993 22.065 12 21.9577V17.2852L6.75003 11.9999H2.04228C1.93507 12.0003 1.83018 11.9687 1.74092 11.9093C1.65167 11.8499 1.58209 11.7654 1.54102 11.6663C1.49994 11.5673 1.48923 11.4583 1.51024 11.3532C1.53126 11.248 1.58304 11.1515 1.65902 11.0759L5.31003 7.42866C5.75221 6.98723 6.32118 6.69488 6.93753 6.59241L10.5 5.99991C13.8398 3.03066 16.0515 2.26116 18.069 1.76991C18.9596 1.53721 19.8826 1.45383 20.8005 1.52316C21.2592 1.52184 21.708 1.65623 22.0905 1.90941C22.3437 2.29189 22.4781 2.74072 22.4768 3.19941C22.5459 4.11733 22.463 5.04035 22.23 5.93091ZM19.5 7.49991C19.5 6.90656 19.3241 6.32654 18.9944 5.8332C18.6648 5.33985 18.1963 4.95533 17.6481 4.72827C17.0999 4.5012 16.4967 4.44179 15.9148 4.55755C15.3328 4.67331 14.7983 4.95903 14.3787 5.37859C13.9591 5.79814 13.6734 6.33269 13.5577 6.91464C13.4419 7.49658 13.5013 8.09978 13.7284 8.64796C13.9554 9.19614 14.34 9.66467 14.8333 9.99432C15.3267 10.324 15.9067 10.4999 16.5 10.4999C17.2957 10.4999 18.0587 10.1838 18.6213 9.62123C19.184 9.05862 19.5 8.29556 19.5 7.49991Z" fill="#EF5350"/>
</svg>
