<svg width="512" height="512" viewBox="0 0 512 512" fill="none" xmlns="http://www.w3.org/2000/svg">
<g clip-path="url(#clip0_456_2159)">
<path d="M176.292 511.92C166.909 511.92 158.107 511.168 149.882 509.666C141.774 508.28 135.056 506.49 129.728 504.295L146.407 449.186C155.095 451.844 162.914 453.288 169.863 453.519C176.928 453.75 183.009 452.132 188.107 448.666C193.319 445.201 197.546 439.309 200.789 430.99L205.133 419.726L109.4 145.92H187.238L242.489 341.396H245.268L301.041 145.92H379.4L275.675 440.869C270.694 455.195 263.917 467.671 255.346 478.3C246.891 489.045 236.176 497.304 223.202 503.081C210.231 508.974 194.592 511.92 176.292 511.92Z" fill="#F5F5F5"/>
<path d="M345.4 121.92C379.089 121.92 406.4 94.6094 406.4 60.92C406.4 27.2307 379.089 -0.0799561 345.4 -0.0799561C311.711 -0.0799561 284.4 27.2307 284.4 60.92C284.4 94.6094 311.711 121.92 345.4 121.92Z" fill="#EF5350"/>
</g>
<defs>
<clipPath id="clip0_456_2159">
<rect width="512" height="512" fill="white"/>
</clipPath>
</defs>
</svg>
