<svg width="50" height="50" viewBox="0 0 50 50" fill="none" xmlns="http://www.w3.org/2000/svg">
<rect width="50" height="50" fill="#161616"/>
<path d="M19.9205 41.5455C19.3068 41.5455 18.7311 41.4962 18.1932 41.3977C17.6629 41.3068 17.2235 41.1894 16.875 41.0455L17.9659 37.4318C18.5341 37.6061 19.0455 37.7008 19.5 37.7159C19.9621 37.7311 20.3598 37.625 20.6932 37.3977C21.0341 37.1705 21.3106 36.7841 21.5227 36.2386L21.8068 35.5L15.5455 17.5455H20.6364L24.25 30.3636H24.4318L28.0795 17.5455H33.2045L26.4205 36.8864C26.0947 37.8258 25.6515 38.6439 25.0909 39.3409C24.5379 40.0455 23.8371 40.5871 22.9886 40.9659C22.1402 41.3523 21.1174 41.5455 19.9205 41.5455Z" fill="#F5F5F5"/>
<circle cx="31" cy="12" r="4" fill="#EF5350"/>
</svg>
