<svg width="86" height="46" viewBox="0 0 86 46" fill="none" xmlns="http://www.w3.org/2000/svg">
<path d="M12.3793 14.9091V18.8864H0.596591V14.9091H12.3793ZM3.29368 34V13.5295C3.29368 12.1457 3.56297 10.9981 4.10156 10.0866C4.64844 9.17519 5.39418 8.49159 6.33878 8.03586C7.28338 7.58014 8.35642 7.35227 9.55788 7.35227C10.3699 7.35227 11.1115 7.41442 11.7827 7.53871C12.4621 7.663 12.9676 7.77486 13.299 7.87429L12.3544 11.8516C12.1473 11.7853 11.8904 11.7231 11.5838 11.6651C11.2855 11.6071 10.9789 11.5781 10.6641 11.5781C9.88518 11.5781 9.34245 11.7604 9.03587 12.125C8.72929 12.4813 8.57599 12.9826 8.57599 13.6289V34H3.29368ZM17.2242 34.3604C16.0062 34.3604 14.9207 34.1491 13.9678 33.7266C13.0149 33.2957 12.2609 32.6618 11.7057 31.8249C11.1589 30.9798 10.8854 29.9274 10.8854 28.668C10.8854 27.6074 11.0801 26.7166 11.4696 25.9957C11.859 25.2749 12.3893 24.6948 13.0605 24.2557C13.7317 23.8165 14.494 23.4851 15.3474 23.2614C16.2092 23.0376 17.1123 22.8802 18.0569 22.7891C19.1673 22.6731 20.0622 22.5653 20.7416 22.4659C21.4211 22.3582 21.9141 22.2008 22.2207 21.9936C22.5272 21.7865 22.6805 21.4799 22.6805 21.0739V20.9993C22.6805 20.2121 22.4319 19.6031 21.9348 19.1722C21.4459 18.7414 20.7499 18.5259 19.8467 18.5259C18.8938 18.5259 18.1357 18.7372 17.5722 19.1598C17.0088 19.5741 16.6359 20.0961 16.4536 20.7259L11.5566 20.3281C11.8052 19.1681 12.294 18.1655 13.0232 17.3203C13.7524 16.4669 14.6928 15.8123 15.8446 15.3565C17.0046 14.8925 18.347 14.6605 19.8716 14.6605C20.9322 14.6605 21.9472 14.7848 22.9167 15.0334C23.8944 15.282 24.7603 15.6673 25.5143 16.1893C26.2766 16.7113 26.8774 17.3825 27.3165 18.2028C27.7557 19.0148 27.9753 19.9884 27.9753 21.1236V34H22.954V31.3526H22.8048C22.4982 31.9492 22.0881 32.4754 21.5743 32.9311C21.0606 33.3786 20.4433 33.7307 19.7224 33.9876C19.0015 34.2362 18.1688 34.3604 17.2242 34.3604ZM18.7405 30.7063C19.5194 30.7063 20.2072 30.553 20.8037 30.2464C21.4003 29.9316 21.8685 29.509 22.2082 28.9787C22.5479 28.4484 22.7178 27.8477 22.7178 27.1765V25.1506C22.5521 25.2583 22.3242 25.3577 22.0342 25.4489C21.7525 25.5317 21.4335 25.6104 21.0772 25.685C20.7209 25.7513 20.3646 25.8134 20.0083 25.8714C19.652 25.9212 19.3288 25.9667 19.0388 26.0082C18.4174 26.0993 17.8747 26.2443 17.4106 26.4432C16.9466 26.642 16.5862 26.9113 16.3293 27.2511C16.0724 27.5825 15.944 27.9968 15.944 28.494C15.944 29.2148 16.205 29.7659 16.727 30.147C17.2573 30.5199 17.9285 30.7063 18.7405 30.7063ZM31.5183 41.1591C30.8471 41.1591 30.2174 41.1052 29.6291 40.9975C29.049 40.8981 28.5685 40.7696 28.1873 40.6122L29.3805 36.6598C30.0019 36.8504 30.5612 36.954 31.0584 36.9705C31.5638 36.9871 31.9989 36.8711 32.3634 36.6225C32.7363 36.3739 33.0387 35.9513 33.2708 35.3548L33.5815 34.5469L26.7331 14.9091H32.3013L36.2537 28.929H36.4526L40.4423 14.9091H46.0477L38.6276 36.0632C38.2713 37.0907 37.7866 37.9856 37.1735 38.7479C36.5686 39.5185 35.8021 40.1109 34.8741 40.5252C33.9461 40.9478 32.8275 41.1591 31.5183 41.1591ZM52.0268 34.3107C50.5768 34.3107 49.2635 33.9379 48.0868 33.1921C46.9185 32.4381 45.9905 31.3319 45.3028 29.8736C44.6233 28.407 44.2836 26.6089 44.2836 24.4794C44.2836 22.2919 44.6357 20.4731 45.34 19.0231C46.0443 17.5647 46.9807 16.4751 48.149 15.7543C49.3256 15.0251 50.6141 14.6605 52.0144 14.6605C53.0833 14.6605 53.974 14.8428 54.6866 15.2074C55.4075 15.5637 55.9875 16.0111 56.4267 16.5497C56.8741 17.08 57.2139 17.602 57.4459 18.1158H57.6074V8.54545H62.8898V34H57.6696V30.9425H57.4459C57.1973 31.4728 56.8451 31.9989 56.3894 32.521C55.942 33.0347 55.3578 33.4614 54.6369 33.8011C53.9243 34.1409 53.0543 34.3107 52.0268 34.3107ZM53.7047 30.0973C54.5582 30.0973 55.2791 29.8653 55.8674 29.4013C56.464 28.929 56.9197 28.2702 57.2346 27.4251C57.5577 26.5799 57.7193 25.5897 57.7193 24.4545C57.7193 23.3194 57.5619 22.3333 57.247 21.4964C56.9321 20.6596 56.4764 20.0133 55.8798 19.5575C55.2832 19.1018 54.5582 18.8739 53.7047 18.8739C52.8347 18.8739 52.1014 19.1101 51.5048 19.5824C50.9082 20.0547 50.4566 20.7093 50.1501 21.5462C49.8435 22.383 49.6902 23.3525 49.6902 24.4545C49.6902 25.5649 49.8435 26.5468 50.1501 27.4002C50.4649 28.2454 50.9165 28.9083 51.5048 29.3888C52.1014 29.8612 52.8347 30.0973 53.7047 30.0973ZM69.5369 34.3604C68.3189 34.3604 67.2334 34.1491 66.2805 33.7266C65.3276 33.2957 64.5736 32.6618 64.0184 31.8249C63.4716 30.9798 63.1981 29.9274 63.1981 28.668C63.1981 27.6074 63.3928 26.7166 63.7823 25.9957C64.1717 25.2749 64.702 24.6948 65.3732 24.2557C66.0444 23.8165 66.8067 23.4851 67.6601 23.2614C68.5219 23.0376 69.425 22.8802 70.3696 22.7891C71.48 22.6731 72.3748 22.5653 73.0543 22.4659C73.7337 22.3582 74.2268 22.2008 74.5333 21.9936C74.8399 21.7865 74.9932 21.4799 74.9932 21.0739V20.9993C74.9932 20.2121 74.7446 19.6031 74.2475 19.1722C73.7586 18.7414 73.0626 18.5259 72.1594 18.5259C71.2065 18.5259 70.4484 18.7372 69.8849 19.1598C69.3215 19.5741 68.9486 20.0961 68.7663 20.7259L63.8693 20.3281C64.1179 19.1681 64.6067 18.1655 65.3359 17.3203C66.0651 16.4669 67.0055 15.8123 68.1573 15.3565C69.3173 14.8925 70.6596 14.6605 72.1843 14.6605C73.2449 14.6605 74.2599 14.7848 75.2294 15.0334C76.2071 15.282 77.073 15.6673 77.827 16.1893C78.5893 16.7113 79.1901 17.3825 79.6292 18.2028C80.0684 19.0148 80.288 19.9884 80.288 21.1236V34H75.2667V31.3526H75.1175C74.8109 31.9492 74.4008 32.4754 73.887 32.9311C73.3733 33.3786 72.756 33.7307 72.0351 33.9876C71.3142 34.2362 70.4815 34.3604 69.5369 34.3604ZM71.0532 30.7063C71.8321 30.7063 72.5199 30.553 73.1164 30.2464C73.713 29.9316 74.1812 29.509 74.5209 28.9787C74.8606 28.4484 75.0305 27.8477 75.0305 27.1765V25.1506C74.8648 25.2583 74.6369 25.3577 74.3469 25.4489C74.0652 25.5317 73.7462 25.6104 73.3899 25.685C73.0336 25.7513 72.6773 25.8134 72.321 25.8714C71.9647 25.9212 71.6415 25.9667 71.3515 26.0082C70.7301 26.0993 70.1873 26.2443 69.7233 26.4432C69.2593 26.642 68.8989 26.9113 68.642 27.2511C68.3851 27.5825 68.2567 27.9968 68.2567 28.494C68.2567 29.2148 68.5177 29.7659 69.0397 30.147C69.57 30.5199 70.2412 30.7063 71.0532 30.7063Z" fill="#F5F5F5"/>
<circle cx="43" cy="9" r="4" fill="#EF5350"/>
</svg>
