<svg width="93" height="42" viewBox="0 0 93 42" fill="none" xmlns="http://www.w3.org/2000/svg">
<path d="M17.9972 20.353L13.1499 20.6513C13.067 20.237 12.8888 19.8641 12.6154 19.5327C12.342 19.1929 11.9815 18.9237 11.5341 18.7248C11.0949 18.5176 10.5688 18.4141 9.95561 18.4141C9.1353 18.4141 8.44342 18.5881 7.87997 18.9361C7.31652 19.2758 7.0348 19.7315 7.0348 20.3033C7.0348 20.759 7.21709 21.1443 7.58168 21.4592C7.94626 21.774 8.57185 22.0268 9.45845 22.2173L12.9137 22.9134C14.7698 23.2945 16.1535 23.9077 17.065 24.7528C17.9764 25.598 18.4322 26.7083 18.4322 28.0838C18.4322 29.335 18.0634 30.4329 17.326 31.3775C16.5968 32.3221 15.5942 33.0595 14.3182 33.5898C13.0504 34.1119 11.588 34.3729 9.93075 34.3729C7.40353 34.3729 5.39003 33.8467 3.89027 32.7944C2.39879 31.7338 1.52462 30.292 1.26776 28.4691L6.4755 28.1957C6.63293 28.9663 7.01409 29.5546 7.61896 29.9606C8.22384 30.3583 8.99858 30.5572 9.94318 30.5572C10.8712 30.5572 11.617 30.379 12.1804 30.0227C12.7521 29.6581 13.0421 29.19 13.0504 28.6183C13.0421 28.1377 12.8391 27.7441 12.4414 27.4375C12.0437 27.1226 11.4305 26.8823 10.6019 26.7166L7.29581 26.0579C5.43146 25.685 4.04356 25.0387 3.1321 24.119C2.22893 23.1992 1.77734 22.0268 1.77734 20.6016C1.77734 19.3752 2.10878 18.3188 2.77166 17.4322C3.44283 16.5456 4.38329 15.862 5.59304 15.3814C6.81108 14.9008 8.23627 14.6605 9.86861 14.6605C12.2798 14.6605 14.1773 15.1701 15.5611 16.1893C16.9531 17.2085 17.7652 18.5964 17.9972 20.353ZM28.7707 14.9091V18.8864H17.2739V14.9091H28.7707ZM19.884 10.3352H25.1787V28.1335C25.1787 28.6224 25.2533 29.0036 25.4025 29.277C25.5516 29.5421 25.7588 29.7286 26.0239 29.8363C26.2974 29.944 26.6122 29.9979 26.9685 29.9979C27.2171 29.9979 27.4657 29.9772 27.7143 29.9357C27.9628 29.886 28.1534 29.8487 28.286 29.8239L29.1187 33.7638C28.8536 33.8467 28.4807 33.942 28.0001 34.0497C27.5195 34.1657 26.9354 34.2362 26.2476 34.261C24.9716 34.3107 23.853 34.1409 22.8918 33.7514C21.9389 33.362 21.1973 32.7571 20.667 31.9368C20.1367 31.1165 19.8757 30.0807 19.884 28.8295V10.3352ZM41.3123 25.8714V14.9091H46.6071V34H41.5236V30.5323H41.3247C40.8939 31.6509 40.1771 32.55 39.1745 33.2294C38.1802 33.9089 36.9663 34.2486 35.5328 34.2486C34.2568 34.2486 33.134 33.9586 32.1646 33.3786C31.1951 32.7985 30.437 31.9741 29.8901 30.9052C29.3515 29.8363 29.078 28.5561 29.0698 27.0646V14.9091H34.3645V26.12C34.3728 27.2469 34.6752 28.1377 35.2718 28.7923C35.8684 29.4469 36.668 29.7741 37.6706 29.7741C38.3086 29.7741 38.9052 29.6291 39.4604 29.3391C40.0155 29.0408 40.463 28.6017 40.8027 28.0217C41.1507 27.4416 41.3206 26.7249 41.3123 25.8714ZM54.727 34.3107C53.277 34.3107 51.9636 33.9379 50.787 33.1921C49.6187 32.4381 48.6907 31.3319 48.0029 29.8736C47.3235 28.407 46.9838 26.6089 46.9838 24.4794C46.9838 22.2919 47.3359 20.4731 48.0402 19.0231C48.7445 17.5647 49.6809 16.4751 50.8492 15.7543C52.0258 15.0251 53.3143 14.6605 54.7146 14.6605C55.7835 14.6605 56.6742 14.8428 57.3868 15.2074C58.1077 15.5637 58.6877 16.0111 59.1269 16.5497C59.5743 17.08 59.914 17.602 60.1461 18.1158H60.3076V8.54545H65.59V34H60.3698V30.9425H60.1461C59.8975 31.4728 59.5453 31.9989 59.0896 32.521C58.6422 33.0347 58.058 33.4614 57.3371 33.8011C56.6245 34.1409 55.7545 34.3107 54.727 34.3107ZM56.4049 30.0973C57.2584 30.0973 57.9793 29.8653 58.5676 29.4013C59.1642 28.929 59.6199 28.2702 59.9348 27.4251C60.2579 26.5799 60.4195 25.5897 60.4195 24.4545C60.4195 23.3194 60.2621 22.3333 59.9472 21.4964C59.6323 20.6596 59.1766 20.0133 58.58 19.5575C57.9834 19.1018 57.2584 18.8739 56.4049 18.8739C55.5349 18.8739 54.8016 19.1101 54.205 19.5824C53.6084 20.0547 53.1568 20.7093 52.8502 21.5462C52.5437 22.383 52.3904 23.3525 52.3904 24.4545C52.3904 25.5649 52.5437 26.5468 52.8502 27.4002C53.1651 28.2454 53.6167 28.9083 54.205 29.3888C54.8016 29.8612 55.5349 30.0973 56.4049 30.0973ZM66.7932 34V14.9091H72.0879V34H66.7932ZM69.453 12.4482C68.6658 12.4482 67.9905 12.1871 67.4271 11.6651C66.8719 11.1348 66.5943 10.5009 66.5943 9.76349C66.5943 9.03433 66.8719 8.40874 67.4271 7.88672C67.9905 7.35641 68.6658 7.09126 69.453 7.09126C70.2402 7.09126 70.9113 7.35641 71.4665 7.88672C72.0299 8.40874 72.3117 9.03433 72.3117 9.76349C72.3117 10.5009 72.0299 11.1348 71.4665 11.6651C70.9113 12.1871 70.2402 12.4482 69.453 12.4482ZM81.805 34.3729C79.8744 34.3729 78.2048 33.9627 76.7962 33.1424C75.3958 32.3138 74.3145 31.1621 73.5522 29.6871C72.7899 28.204 72.4087 26.4846 72.4087 24.5291C72.4087 22.5571 72.7899 20.8336 73.5522 19.3587C74.3145 17.8755 75.3958 16.7237 76.7962 15.9034C78.2048 15.0748 79.8744 14.6605 81.805 14.6605C83.7357 14.6605 85.4012 15.0748 86.8015 15.9034C88.2101 16.7237 89.2956 17.8755 90.0579 19.3587C90.8202 20.8336 91.2014 22.5571 91.2014 24.5291C91.2014 26.4846 90.8202 28.204 90.0579 29.6871C89.2956 31.1621 88.2101 32.3138 86.8015 33.1424C85.4012 33.9627 83.7357 34.3729 81.805 34.3729ZM81.8299 30.2713C82.7082 30.2713 83.4415 30.0227 84.0298 29.5256C84.6181 29.0201 85.0614 28.3324 85.3597 27.4624C85.6663 26.5923 85.8196 25.6022 85.8196 24.4918C85.8196 23.3815 85.6663 22.3913 85.3597 21.5213C85.0614 20.6513 84.6181 19.9635 84.0298 19.4581C83.4415 18.9527 82.7082 18.6999 81.8299 18.6999C80.9433 18.6999 80.1976 18.9527 79.5927 19.4581C78.9961 19.9635 78.5445 20.6513 78.2379 21.5213C77.9396 22.3913 77.7905 23.3815 77.7905 24.4918C77.7905 25.6022 77.9396 26.5923 78.2379 27.4624C78.5445 28.3324 78.9961 29.0201 79.5927 29.5256C80.1976 30.0227 80.9433 30.2713 81.8299 30.2713Z" fill="#F5F5F5"/>
</svg>
